<svg width="93" height="93" viewBox="0 0 93 93" fill="none" xmlns="http://www.w3.org/2000/svg">
<path fill-rule="evenodd" clip-rule="evenodd" d="M63.9375 87.1875C70.1038 87.1875 76.0175 84.738 80.3777 80.3777C84.738 76.0175 87.1875 70.1038 87.1875 63.9375C87.1875 57.7712 84.738 51.8575 80.3777 47.4973C76.0175 43.137 70.1038 40.6875 63.9375 40.6875C57.7712 40.6875 51.8575 43.137 47.4973 47.4973C43.137 51.8575 40.6875 57.7712 40.6875 63.9375C40.6875 70.1038 43.137 76.0175 47.4973 80.3777C51.8575 84.738 57.7712 87.1875 63.9375 87.1875ZM93 63.9375C93 71.6454 89.9381 79.0375 84.4878 84.4878C79.0375 89.9381 71.6454 93 63.9375 93C56.2296 93 48.8375 89.9381 43.3872 84.4878C37.9369 79.0375 34.875 71.6454 34.875 63.9375C34.875 56.2296 37.9369 48.8375 43.3872 43.3872C48.8375 37.9369 56.2296 34.875 63.9375 34.875C71.6454 34.875 79.0375 37.9369 84.4878 43.3872C89.9381 48.8375 93 56.2296 93 63.9375Z" fill="white"/>
<path d="M54.8584 69.4245C55.1316 72.8888 57.8693 75.5858 62.7809 75.9113V78.4688H64.9606V75.8938C70.0465 75.5393 73.0167 72.819 73.0167 68.8781C73.0167 65.286 70.7498 63.4376 66.6811 62.4844L64.9606 62.0775V55.1025C67.1461 55.3524 68.5294 56.544 68.8608 58.1948H72.6854C72.4122 54.8526 69.5466 52.2428 64.9606 51.9579V49.4062H62.7809V52.0219C58.4389 52.4462 55.4862 55.056 55.4862 58.7527C55.4862 62.0194 57.6833 64.1002 61.3394 64.9489L62.7809 65.3034V72.6969C60.5489 72.3598 59.0667 71.1276 58.7354 69.4245H54.8526H54.8584ZM62.7634 61.5544C60.6186 61.0603 59.4561 60.0431 59.4561 58.5202C59.4561 56.8114 60.7116 55.5326 62.7809 55.1606V61.5544H62.7634ZM65.2744 65.8905C67.8842 66.495 69.0816 67.4715 69.0816 69.1978C69.0816 71.1682 67.5878 72.5168 64.9606 72.7667V65.8208L65.2744 65.8905Z" fill="white"/>
<path d="M5.8125 0C4.27093 0 2.7925 0.612387 1.70244 1.70244C0.612387 2.7925 0 4.27093 0 5.8125L0 52.3125C0 53.8541 0.612387 55.3325 1.70244 56.4226C2.7925 57.5126 4.27093 58.125 5.8125 58.125H29.5449C29.8821 56.1255 30.3878 54.1841 31.0446 52.3125H17.4375C17.4375 49.2294 16.2127 46.2725 14.0326 44.0924C11.8525 41.9123 8.89564 40.6875 5.8125 40.6875V17.4375C8.89564 17.4375 11.8525 16.2127 14.0326 14.0326C16.2127 11.8525 17.4375 8.89564 17.4375 5.8125H75.5625C75.5625 8.89564 76.7873 11.8525 78.9674 14.0326C81.1475 16.2127 84.1044 17.4375 87.1875 17.4375V37.944C89.3962 39.9202 91.3551 42.1755 93 44.6516V5.8125C93 4.27093 92.3876 2.7925 91.2976 1.70244C90.2075 0.612387 88.7291 0 87.1875 0L5.8125 0Z" fill="white"/>
<path d="M58.1134 29.5449L58.125 29.0624C58.1238 27.0605 57.6057 25.0929 56.6208 23.3501C55.6359 21.6072 54.2177 20.1482 52.5034 19.1144C50.7891 18.0806 48.8369 17.507 46.8359 17.4492C44.8348 17.3914 42.8528 17.8512 41.0816 18.7843C39.3105 19.7174 37.8104 21.092 36.7264 22.775C35.6425 24.4581 35.0116 26.3925 34.8948 28.391C34.778 30.3894 35.1792 32.3842 36.0597 34.1821C36.9401 35.9799 38.2699 37.52 39.9203 38.653C44.9408 33.8709 51.2765 30.6991 58.1134 29.5449Z" fill="white"/>
</svg>
