<svg width="178" height="178" viewBox="0 0 178 178" fill="none" xmlns="http://www.w3.org/2000/svg">
<g filter="url(#filter0_d_61_2)">
<circle cx="88.75" cy="84.75" r="84.75" fill="url(#paint0_linear_61_2)"/>
</g>
<path d="M81.9167 98.2499C87.7593 98.2487 93.4336 96.2928 98.036 92.6936L112.506 107.164L117.161 102.509L102.69 88.0392C106.292 83.4363 108.249 77.7607 108.25 71.9166C108.25 57.397 96.4362 45.5833 81.9167 45.5833C67.3972 45.5833 55.5834 57.397 55.5834 71.9166C55.5834 86.4361 67.3972 98.2499 81.9167 98.2499ZM81.9167 52.1666C92.8088 52.1666 101.667 61.0245 101.667 71.9166C101.667 82.8087 92.8088 91.6666 81.9167 91.6666C71.0246 91.6666 62.1667 82.8087 62.1667 71.9166C62.1667 61.0245 71.0246 52.1666 81.9167 52.1666Z" fill="white"/>
<path d="M86.5645 67.2624C87.812 68.5132 88.5 70.1657 88.5 71.9168H95.0833C95.0862 70.1868 94.7462 68.4734 94.0829 66.8756C93.4196 65.2778 92.4462 63.8273 91.2189 62.608C86.2353 57.631 77.5947 57.631 72.6144 62.608L77.2622 67.269C79.7639 64.7739 84.076 64.7805 86.5645 67.2624Z" fill="white"/>
<defs>
<filter id="filter0_d_61_2" x="0" y="0" width="177.5" height="177.5" filterUnits="userSpaceOnUse" color-interpolation-filters="sRGB">
<feFlood flood-opacity="0" result="BackgroundImageFix"/>
<feColorMatrix in="SourceAlpha" type="matrix" values="0 0 0 0 0 0 0 0 0 0 0 0 0 0 0 0 0 0 127 0" result="hardAlpha"/>
<feOffset dy="4"/>
<feGaussianBlur stdDeviation="2"/>
<feComposite in2="hardAlpha" operator="out"/>
<feColorMatrix type="matrix" values="0 0 0 0 0 0 0 0 0 0 0 0 0 0 0 0 0 0 0.25 0"/>
<feBlend mode="normal" in2="BackgroundImageFix" result="effect1_dropShadow_61_2"/>
<feBlend mode="normal" in="SourceGraphic" in2="effect1_dropShadow_61_2" result="shape"/>
</filter>
<linearGradient id="paint0_linear_61_2" x1="-69.5" y1="-113" x2="212.94" y2="-109.78" gradientUnits="userSpaceOnUse">
<stop offset="0.286458" stop-color="#E969A4"/>
<stop offset="0.510417" stop-color="#C32BAD"/>
<stop offset="0.859375" stop-color="#1DB9C3"/>
</linearGradient>
</defs>
</svg>
