<svg width="36" height="36" viewBox="0 0 36 36" fill="none" xmlns="http://www.w3.org/2000/svg">
<path d="M4.22001 23.1999L2.32001 31.3999C2.25446 31.6997 2.25671 32.0103 2.32658 32.309C2.39646 32.6078 2.53219 32.8872 2.72387 33.1268C2.91555 33.3664 3.15833 33.5602 3.43448 33.6939C3.71063 33.8277 4.01318 33.8981 4.32001 33.8999C4.46298 33.9143 4.60704 33.9143 4.75001 33.8999L13 31.9999L28.84 16.2199L20 7.3999L4.22001 23.1999Z" fill="white"/>
<path d="M33.82 8.31997L27.92 2.41997C27.5321 2.03403 27.0072 1.81738 26.46 1.81738C25.9128 1.81738 25.3879 2.03403 25 2.41997L21.72 5.69997L30.55 14.53L33.83 11.25C34.0219 11.057 34.1739 10.8282 34.2773 10.5764C34.3807 10.3247 34.4335 10.055 34.4326 9.7829C34.4316 9.51075 34.377 9.24146 34.2719 8.99044C34.1668 8.73941 34.0132 8.51158 33.82 8.31997Z" fill="white"/>
</svg>
