<svg width="143" height="73" viewBox="0 0 143 73" fill="none" xmlns="http://www.w3.org/2000/svg">
<path d="M85.75 0.875H142.75V15.125H85.75V0.875ZM85.75 29.375H142.75V43.625H85.75V29.375ZM85.75 57.875H142.75V72.125H85.75V57.875ZM14.5 72.125H57.25C65.0875 72.125 71.5 65.7125 71.5 57.875V15.125C71.5 7.2875 65.0875 0.875 57.25 0.875H14.5C6.6625 0.875 0.25 7.2875 0.25 15.125V57.875C0.25 65.7125 6.6625 72.125 14.5 72.125ZM23.4062 41.8438L32.3125 52.6025L44.7812 36.5L60.8125 57.875H10.9375L23.4062 41.8438Z" fill="white"/>
</svg>
