<svg width="52" height="52" viewBox="0 0 52 52" fill="none" xmlns="http://www.w3.org/2000/svg">
<path d="M20.2223 5.77783H8.66672C7.07123 5.77783 5.77783 7.07123 5.77783 8.66672V20.2223C5.77783 21.8178 7.07123 23.1112 8.66672 23.1112H20.2223C21.8178 23.1112 23.1112 21.8178 23.1112 20.2223V8.66672C23.1112 7.07123 21.8178 5.77783 20.2223 5.77783Z" fill="white"/>
<path d="M43.3334 5.77783H31.7778C30.1823 5.77783 28.8889 7.07123 28.8889 8.66672V20.2223C28.8889 21.8178 30.1823 23.1112 31.7778 23.1112H43.3334C44.9288 23.1112 46.2222 21.8178 46.2222 20.2223V8.66672C46.2222 7.07123 44.9288 5.77783 43.3334 5.77783Z" fill="white"/>
<path d="M20.2223 28.8887H8.66672C7.07123 28.8887 5.77783 30.1821 5.77783 31.7776V43.3331C5.77783 44.9286 7.07123 46.222 8.66672 46.222H20.2223C21.8178 46.222 23.1112 44.9286 23.1112 43.3331V31.7776C23.1112 30.1821 21.8178 28.8887 20.2223 28.8887Z" fill="white"/>
<path d="M43.3334 28.8887H31.7778C30.1823 28.8887 28.8889 30.1821 28.8889 31.7776V43.3331C28.8889 44.9286 30.1823 46.222 31.7778 46.222H43.3334C44.9288 46.222 46.2222 44.9286 46.2222 43.3331V31.7776C46.2222 30.1821 44.9288 28.8887 43.3334 28.8887Z" fill="white"/>
</svg>
