<svg width="122" height="70" viewBox="0 0 122 70" fill="none" xmlns="http://www.w3.org/2000/svg">
<g filter="url(#filter0_d_0_1410)">
<rect x="10" width="102" height="50" rx="25" fill="#1DB9C3" fill-opacity="0.8" shape-rendering="crispEdges"/>
<rect x="10.5" y="0.5" width="101" height="49" rx="24.5" stroke="white" shape-rendering="crispEdges"/>
</g>
<path d="M49 17.0001C48.8675 16.9982 48.7359 17.0227 48.613 17.0721C48.49 17.1215 48.3781 17.1949 48.2837 17.2879C48.1893 17.381 48.1144 17.4919 48.0633 17.6141C48.0121 17.7364 47.9858 17.8676 47.9858 18.0001C47.9858 18.1326 48.0121 18.2638 48.0633 18.3861C48.1144 18.5083 48.1893 18.6192 48.2837 18.7123C48.3781 18.8053 48.49 18.8787 48.613 18.9281C48.7359 18.9775 48.8675 19.002 49 19.0001H73C73.1325 19.002 73.2641 18.9775 73.3871 18.9281C73.51 18.8787 73.622 18.8053 73.7163 18.7123C73.8107 18.6192 73.8856 18.5083 73.9368 18.3861C73.9879 18.2638 74.0143 18.1326 74.0143 18.0001C74.0143 17.8676 73.9879 17.7364 73.9368 17.6141C73.8856 17.4919 73.8107 17.381 73.7163 17.2879C73.622 17.1949 73.51 17.1215 73.3871 17.0721C73.2641 17.0227 73.1325 16.9982 73 17.0001H49ZM49 24.0001C48.8675 23.9982 48.7359 24.0227 48.613 24.0721C48.49 24.1215 48.3781 24.1949 48.2837 24.2879C48.1893 24.381 48.1144 24.4919 48.0633 24.6141C48.0121 24.7364 47.9858 24.8676 47.9858 25.0001C47.9858 25.1326 48.0121 25.2638 48.0633 25.3861C48.1144 25.5083 48.1893 25.6192 48.2837 25.7123C48.3781 25.8053 48.49 25.8787 48.613 25.9281C48.7359 25.9775 48.8675 26.002 49 26.0001H73C73.1325 26.002 73.2641 25.9775 73.3871 25.9281C73.51 25.8787 73.622 25.8053 73.7163 25.7123C73.8107 25.6192 73.8856 25.5083 73.9368 25.3861C73.9879 25.2638 74.0143 25.1326 74.0143 25.0001C74.0143 24.8676 73.9879 24.7364 73.9368 24.6141C73.8856 24.4919 73.8107 24.381 73.7163 24.2879C73.622 24.1949 73.51 24.1215 73.3871 24.0721C73.2641 24.0227 73.1325 23.9982 73 24.0001H49ZM49 31.0001C48.8675 30.9982 48.7359 31.0227 48.613 31.0721C48.49 31.1215 48.3781 31.1949 48.2837 31.2879C48.1893 31.381 48.1144 31.4919 48.0633 31.6141C48.0121 31.7364 47.9858 31.8676 47.9858 32.0001C47.9858 32.1326 48.0121 32.2638 48.0633 32.3861C48.1144 32.5083 48.1893 32.6192 48.2837 32.7123C48.3781 32.8053 48.49 32.8787 48.613 32.9281C48.7359 32.9775 48.8675 33.002 49 33.0001H73C73.1325 33.002 73.2641 32.9775 73.3871 32.9281C73.51 32.8787 73.622 32.8053 73.7163 32.7123C73.8107 32.6192 73.8856 32.5083 73.9368 32.3861C73.9879 32.2638 74.0143 32.1326 74.0143 32.0001C74.0143 31.8676 73.9879 31.7364 73.9368 31.6141C73.8856 31.4919 73.8107 31.381 73.7163 31.2879C73.622 31.1949 73.51 31.1215 73.3871 31.0721C73.2641 31.0227 73.1325 30.9982 73 31.0001H49Z" fill="white"/>
<defs>
<filter id="filter0_d_0_1410" x="0" y="0" width="122" height="70" filterUnits="userSpaceOnUse" color-interpolation-filters="sRGB">
<feFlood flood-opacity="0" result="BackgroundImageFix"/>
<feColorMatrix in="SourceAlpha" type="matrix" values="0 0 0 0 0 0 0 0 0 0 0 0 0 0 0 0 0 0 127 0" result="hardAlpha"/>
<feOffset dy="10"/>
<feGaussianBlur stdDeviation="5"/>
<feComposite in2="hardAlpha" operator="out"/>
<feColorMatrix type="matrix" values="0 0 0 0 0.113725 0 0 0 0 0.72549 0 0 0 0 0.764706 0 0 0 0.3 0"/>
<feBlend mode="normal" in2="BackgroundImageFix" result="effect1_dropShadow_0_1410"/>
<feBlend mode="normal" in="SourceGraphic" in2="effect1_dropShadow_0_1410" result="shape"/>
</filter>
</defs>
</svg>
