<svg width="84" height="66" viewBox="0 0 84 66" fill="none" xmlns="http://www.w3.org/2000/svg">
<path d="M35.4829 0.320068C13.7559 0.320068 0.720002 17.7488 0.720002 26.4641C0.720002 35.1793 5.06472 41.7153 13.7559 41.7153C22.447 41.7153 26.7935 43.8928 26.7935 50.4288C26.7935 59.1423 33.3106 65.6783 42.0017 65.6783C70.2476 65.6783 83.2817 50.4288 83.2817 35.1793C83.28 9.03531 61.5495 0.320068 35.4829 0.320068ZM30.0512 9.03531C30.7654 9.03621 31.4724 9.17778 32.1319 9.45193C32.7914 9.72608 33.3905 10.1274 33.8948 10.6331C34.3992 11.1388 34.7991 11.7388 35.0716 12.399C35.344 13.0592 35.4838 13.7666 35.4829 14.4808C35.4829 17.4908 33.0508 19.9281 30.0512 19.9281C27.0515 19.9281 24.6194 17.4891 24.6194 14.4808C24.6185 13.7666 24.7583 13.0592 25.0308 12.399C25.3032 11.7388 25.7031 11.1388 26.2075 10.6331C26.7119 10.1274 27.3109 9.72608 27.9704 9.45193C28.6299 9.17778 29.3369 9.03621 30.0512 9.03531ZM47.43 9.03531C48.1442 9.03621 48.8513 9.17778 49.5108 9.45193C50.1703 9.72608 50.7693 10.1274 51.2737 10.6331C51.7781 11.1388 52.178 11.7388 52.4504 12.399C52.7229 13.0592 52.8627 13.7666 52.8618 14.4808C52.8629 15.1952 52.7233 15.9028 52.4509 16.5632C52.1786 17.2235 51.7787 17.8238 51.2743 18.3297C50.7699 18.8355 50.1708 19.237 49.5112 19.5113C48.8516 19.7855 48.1444 19.9272 47.43 19.9281C46.7158 19.9269 46.0088 19.7851 45.3494 19.5108C44.69 19.2364 44.0911 18.8349 43.5869 18.329C43.0826 17.8232 42.683 17.223 42.4107 16.5628C42.1384 15.9025 41.9989 15.195 42 14.4808C41.9982 13.0387 42.5692 11.6549 43.5875 10.6337C44.6057 9.61253 45.9879 9.03759 47.43 9.03531ZM64.8124 17.7488C65.5269 17.7495 66.2342 17.891 66.894 18.1651C67.5538 18.4393 68.1532 18.8408 68.6578 19.3466C69.1624 19.8525 69.5623 20.4528 69.8348 21.1133C70.1073 21.7738 70.247 22.4816 70.2458 23.1961C70.247 23.9105 70.1073 24.6181 69.8348 25.2785C69.5623 25.9389 69.1623 26.5392 68.6577 27.0449C68.153 27.5506 67.5537 27.9519 66.8939 28.2259C66.2341 28.4999 65.5268 28.6411 64.8124 28.6416C64.0982 28.6409 63.3911 28.4995 62.7316 28.2254C62.0721 27.9513 61.4731 27.5499 60.9688 27.0442C60.4645 26.5384 60.0648 25.9383 59.7926 25.278C59.5204 24.6177 59.381 23.9103 59.3823 23.1961C59.381 22.4818 59.5204 21.7742 59.7926 21.1139C60.0647 20.4535 60.4644 19.8532 60.9687 19.3473C61.4729 18.8415 62.072 18.4399 62.7315 18.1656C63.391 17.8914 64.0981 17.7497 64.8124 17.7488ZM14.8429 22.1073C15.557 22.108 16.2639 22.2494 16.9233 22.5233C17.5827 22.7973 18.1816 23.1986 18.6859 23.7041C19.1902 24.2097 19.5899 24.8096 19.8622 25.4697C20.1345 26.1298 20.2741 26.8371 20.273 27.5511C20.273 30.5611 17.8409 32.9983 14.8429 32.9983C11.845 32.9983 9.41116 30.5594 9.41116 27.5511C9.40979 26.109 9.98124 24.7254 10.9998 23.7045C12.0184 22.6836 13.4008 22.1091 14.8429 22.1073ZM42 43.8928C45.6 43.8928 48.5171 46.8168 48.5171 50.4305C48.5171 54.0391 45.6 56.9648 42 56.9648C38.4 56.9648 35.4829 54.0391 35.4829 50.4305C35.4813 49.5733 35.6487 48.7241 35.9754 47.9316C36.3021 47.139 36.7817 46.4186 37.3869 45.8114C37.9922 45.2043 38.7111 44.7224 39.5026 44.3932C40.2941 44.064 41.1427 43.8939 42 43.8928Z" fill="white"/>
</svg>
