<svg width="1263" height="698" viewBox="0 0 1263 698" fill="none" xmlns="http://www.w3.org/2000/svg">
<path fill-rule="evenodd" clip-rule="evenodd" d="M3 309L13.9477 264.976C23.9002 220.951 44.8005 131.902 65.7007 112.891C86.6009 93.881 107.501 144.909 128.401 182.93C149.302 220.951 170.202 245.965 191.102 226.955C212.998 207.944 233.898 144.909 254.798 150.913C275.698 156.916 296.599 232.958 317.499 257.972C338.399 283.986 359.299 257.972 380.2 226.955C401.1 194.937 422 156.916 442.9 137.905C463.8 119.895 484.701 119.895 505.601 125.899C526.501 131.902 547.401 144.909 568.302 150.913C589.202 156.916 610.102 156.916 631.998 137.905C652.898 119.895 673.798 81.8743 694.698 87.8777C715.599 93.881 736.499 144.909 757.399 169.923C778.299 194.937 799.2 194.937 820.1 175.926C841 156.916 861.9 119.895 882.8 131.902C903.701 144.909 924.601 207.944 945.501 226.955C966.401 245.965 987.302 220.951 1008.2 175.926C1029.1 131.902 1051 68.8671 1071.9 36.8494C1092.8 5.83225 1113.7 5.83224 1134.6 49.8566C1155.5 93.881 1176.4 182.93 1197.3 213.947C1218.2 245.965 1239.1 220.951 1249.05 207.944L1260 194.937V309H1249.05C1239.1 309 1218.2 309 1197.3 309C1176.4 309 1155.5 309 1134.6 309C1113.7 309 1092.8 309 1071.9 309C1051 309 1029.1 309 1008.2 309C987.302 309 966.401 309 945.501 309C924.601 309 903.701 309 882.8 309C861.9 309 841 309 820.1 309C799.2 309 778.299 309 757.399 309C736.499 309 715.599 309 694.698 309C673.798 309 652.898 309 631.998 309C610.102 309 589.202 309 568.302 309C547.401 309 526.501 309 505.601 309C484.701 309 463.8 309 442.9 309C422 309 401.1 309 380.2 309C359.299 309 338.399 309 317.499 309C296.599 309 275.698 309 254.798 309C233.898 309 212.998 309 191.102 309C170.202 309 149.302 309 128.401 309C107.501 309 86.6009 309 65.7007 309C44.8005 309 23.9002 309 13.9477 309H3Z" fill="#23DFEB"/>
<path fill-rule="evenodd" clip-rule="evenodd" d="M0 163.039C18.2982 156.06 46.8567 149.461 74.6865 175.162C89.7573 188.139 104.627 209.794 119.385 231.286C138.169 258.642 156.771 285.732 175.373 294.322C205.493 306.77 234.81 273.61 264.03 240.559C268.041 236.022 272.05 231.487 276.059 227.073C310.314 189.319 343.53 159.824 377.784 175.162C391.021 180.804 404.259 193.754 417.562 206.768C437.64 226.41 457.867 246.198 478.47 241.231C503.725 235.848 529.58 191.591 555.122 147.869C563.174 134.086 571.195 120.356 579.157 107.913C612.373 54.8223 646.627 25.3273 679.843 11.1698C713.059 -4.16763 747.314 -4.16763 780.53 18.2486C805.911 34.8586 830.723 63.7763 855.387 92.522C864.009 102.57 872.613 112.598 881.216 122.071C915.47 159.824 948.686 189.319 982.941 196.398C1016.16 204.657 1049.37 189.319 1083.63 144.487C1092.92 131.951 1102.2 117.108 1111.51 102.23C1135.5 63.8989 1159.64 25.3273 1184.31 25.3273C1214.26 25.3273 1245.06 85.7592 1263 125.319V648C1263 675.614 1240.61 698 1213 698H50C22.3858 698 0 675.614 0 648V163.039Z" fill="white"/>
<g clip-path="url(#clip0_503_2)">
<path d="M952.01 548.334L952.019 548.109L951.944 547.883C947.531 534.714 945.809 532.569 941.993 528.576C941.604 528.172 941.205 527.776 940.798 527.388C936.781 523.597 934.624 521.886 921.43 517.558L921.203 517.483L920.978 517.494C920.483 517.52 908.594 518.429 884.356 542.818L883.288 543.904L884.847 544.751C884.877 544.768 887.857 546.423 891.706 551.356C889.827 552.277 887.886 553.063 885.896 553.709L884.787 554.071L885.382 555.24C885.55 555.567 889.536 563.183 900.304 568.245C902.622 573.232 905.412 576.8 907.907 579.279C911.414 582.764 914.34 584.1 914.547 584.193L915.677 584.694L916.013 583.64C916.646 581.646 917.42 579.7 918.329 577.816C923.286 581.636 924.959 584.604 924.974 584.629L925.825 586.209L926.914 585.113C951.152 560.723 951.986 548.829 952.01 548.334ZM939.323 528.987C939.6 529.248 940.142 529.787 940.403 530.06C941.704 531.423 942.733 532.502 943.758 534.064C938.655 537.031 933.477 539.866 928.229 542.568C930.053 535.071 934.387 527.674 935.528 525.808C936.976 526.773 938.02 527.757 939.323 528.987ZM887.144 543.662C888.55 542.265 889.91 540.953 891.23 539.715C895.023 540.8 898.334 544.161 898.334 544.161C896.396 540.969 894.151 539.129 892.825 538.233C910.445 522.09 919.878 520.108 921.302 519.894C924.335 520.892 926.737 521.738 928.694 522.495C927.803 524.603 925.875 529.677 924.482 536.976C924.482 536.976 928.266 528.055 931.138 523.493C931.962 523.851 932.685 524.192 933.329 524.523C931.838 526.965 926.873 535.57 925.431 543.981C920.649 546.364 915.647 548.657 911.311 550.235C908.71 547.862 906.662 546.242 905.45 545.332C907.722 543.168 909.605 541.023 910.856 539.219C914.565 533.868 918.802 531.223 918.802 531.223C916.751 531.696 915.725 532.424 915.725 532.424L916.077 529.105C914.277 533.875 913.097 532.139 909.095 538.241C908.786 538.713 908.434 539.182 908.05 539.652C906.951 538.29 904.862 536.09 902.319 535.295C902.319 535.295 905.672 537.526 906.821 541.03C904.649 543.286 901.808 545.449 898.98 547.331C896.747 544.929 893.77 543.588 893.77 543.588C895.349 544.859 896.633 546.459 897.533 548.275C896.308 549.052 895.066 549.801 893.808 550.521C891.034 546.883 888.606 544.751 887.144 543.662ZM888.566 556.139C893.514 554.597 898.767 551.157 903.098 547.446C904.522 549.214 905.946 550.874 907.341 552.426C904.821 552.302 901.008 552.588 895.904 554.265C895.904 554.265 897.01 556.367 898.082 558.324C898.082 558.324 901.393 557.272 905.722 556.684C903.489 560.021 901.383 564.093 900.494 565.873C893.957 562.67 890.241 558.448 888.566 556.139ZM902.461 567.602C903.299 565.91 906.336 559.932 909.087 556.372C909.2 557.269 909.385 557.942 909.697 557.969C910.053 557.995 911.24 558.161 912.532 558.294C912.234 564.136 910.634 569.264 910.634 569.264C912.599 570.324 914.707 571.416 914.707 571.416C916.031 567.302 916.455 564.039 916.501 561.601C919.265 564.096 921.376 565.769 922.366 566.528C918.662 570.901 915.231 576.208 913.722 581.192C911.25 579.6 906.189 575.583 902.461 567.602ZM919.333 575.845C919.989 574.684 920.669 573.537 921.372 572.405C922.377 572.803 924.832 573.969 926.878 576.492C926.878 576.492 925.266 572.977 922.433 570.74C924.206 568.041 926.231 565.321 928.355 563.172C932.433 563.903 935.115 567.89 935.115 567.89C934.138 564.833 931.116 562.437 930.004 561.638C930.5 561.222 930.999 560.843 931.499 560.51C937.577 556.47 935.833 555.301 940.592 553.472L937.276 553.844C937.276 553.844 937.997 552.813 938.457 550.759C938.457 550.759 935.84 555.014 930.511 558.755C928.691 560.034 926.527 561.966 924.347 564.292C921.855 561.146 919.214 558.121 916.432 555.227C916.278 553.791 915.997 552.35 915.426 552.217C915.426 552.217 914.79 552.084 913.919 551.927C925.774 547.347 941.503 538.322 945.027 536.269C945.359 536.919 945.701 537.647 946.062 538.475C941.491 541.368 932.712 545.156 932.712 545.156C939.889 543.74 944.899 541.821 947.059 540.9C947.803 542.805 948.635 545.127 949.609 548.024C949.398 549.471 947.465 558.875 931.562 576.491C930.518 575.184 928.826 573.458 926.276 571.931C926.276 571.931 928.973 574.563 930.338 577.827C929.001 579.277 927.583 580.774 926.055 582.331C924.974 580.899 922.878 578.539 919.333 575.845Z" fill="black" fill-opacity="0.5"/>
</g>
<g clip-path="url(#clip1_503_2)">
<path d="M285.014 506.68C283.247 506.008 279.846 504.672 277.631 504.792C275.683 504.897 272.06 506.551 270.375 507.445C268.88 508.236 268.686 508.864 269.037 509.811C269.398 510.785 270.591 511.279 271.683 510.969C271.683 510.969 276.06 508.603 277.708 508.514C279.386 508.417 284.092 510.324 284.092 510.324C285.211 510.52 286.345 509.888 286.602 508.887C286.846 507.906 286.584 507.28 285.014 506.68Z" fill="black" fill-opacity="0.5"/>
<path d="M293.47 509.79C293.47 509.79 297.847 507.426 299.496 507.334C301.177 507.243 305.882 509.144 305.882 509.144C307.001 509.34 308.136 508.708 308.387 507.707C308.637 506.725 308.372 506.098 306.801 505.499C305.04 504.827 301.634 503.49 299.424 503.607C297.468 503.716 293.853 505.369 292.165 506.263C290.668 507.057 290.473 507.683 290.824 508.627C291.187 509.602 292.377 510.102 293.47 509.79Z" fill="black" fill-opacity="0.5"/>
<path d="M266.546 551.777C260.876 554.194 254.925 552.967 255.858 555.162C256.794 557.356 264.268 562.143 269.935 559.727C275.602 557.308 277.32 548.6 276.385 546.406C275.446 544.213 272.213 549.361 266.546 551.777Z" fill="black" fill-opacity="0.5"/>
<path d="M257.954 537.971C257.852 536.998 257.407 536.512 255.781 536.49C253.958 536.459 250.424 536.371 248.454 537.211C246.717 537.951 243.975 540.652 242.738 542.023C241.646 543.237 241.672 543.871 242.307 544.615C242.954 545.38 244.204 545.433 245.092 544.791C245.092 544.791 248.288 541.196 249.754 540.567C251.249 539.928 256.153 540.105 256.153 540.105C257.234 539.913 258.06 538.967 257.954 537.971Z" fill="black" fill-opacity="0.5"/>
<path d="M275.188 528.213C273.363 528.182 269.826 528.094 267.859 528.934C266.119 529.675 263.378 532.375 262.143 533.743C261.048 534.96 261.08 535.593 261.709 536.341C262.358 537.103 263.606 537.159 264.499 536.514C264.499 536.514 267.688 532.919 269.159 532.293C270.654 531.651 275.56 531.828 275.56 531.828C276.641 531.634 277.463 530.688 277.358 529.693C277.256 528.718 276.812 528.235 275.188 528.213Z" fill="black" fill-opacity="0.5"/>
<path d="M310.305 553.401C308.459 553.9 307.208 555.234 306.154 556.468C304.055 559.011 302.542 561.758 300.567 563.939C298.665 566.157 296.401 567.85 293.53 568.331C290.794 568.867 287.791 567.976 285.987 565.37C285.134 564.098 284.566 562.537 284.561 560.98C284.528 559.446 284.997 557.943 285.896 556.699C285.92 556.668 285.95 556.644 285.973 556.612C286.792 557.501 287.828 558.163 288.978 558.534C290.425 559.03 291.825 559.147 293.2 559.284C295.906 559.475 298.709 559.577 301.445 558.903C302.826 558.569 304.127 557.965 305.274 557.126C306.408 556.251 307.354 555.155 308.054 553.905C309.481 551.418 309.955 548.463 309.687 545.606C309.394 542.703 308.464 539.9 306.963 537.397C306.208 536.142 305.272 534.92 304.173 533.892C309.798 525.626 314.737 515.044 314.111 503.507C313.801 497.784 312.883 492.345 311.471 487.374C305.503 491.793 297.162 494.77 287.804 495.277C278.205 495.797 269.389 493.614 262.936 489.683C262.207 493.841 261.856 498.283 261.901 502.892C261.869 502.893 261.836 502.885 261.804 502.887C260.855 502.938 260.017 503.368 259.428 504.026C257.596 502.993 255.496 502.533 253.4 502.707C251.734 502.863 249.82 503.577 248.698 505.311C248.135 506.144 247.89 507.159 247.883 508.088C247.853 509.031 248.085 509.904 248.368 510.703C248.67 511.498 249.064 512.227 249.505 512.9C249.956 513.56 250.318 514.094 250.626 514.741C251.221 515.959 251.545 517.34 251.409 518.722C250.475 518.505 249.587 518.124 248.786 517.596C246.755 516.307 245.065 514.497 244.112 512.398C243.165 510.309 242.867 508.111 243.27 505.996C243.689 503.884 244.76 501.91 246.098 500.13C247.471 498.316 249.132 496.741 251.017 495.468C252.924 494.215 255.063 493.169 257.5 493.092L257.549 492.814C255.107 491.965 252.32 492.5 249.972 493.549C247.582 494.605 245.464 496.252 243.765 498.283C242.085 500.324 240.879 502.868 240.594 505.609C240.439 506.975 240.537 508.358 240.881 509.689C241.249 510.982 241.855 512.195 242.668 513.266C244.25 515.365 246.29 516.908 248.306 518.322C249.206 518.916 250.12 519.521 251.174 519.972C250.881 520.987 250.359 521.92 249.649 522.7C248.697 523.77 247.386 524.462 246.075 524.761C243.341 525.338 240.896 523.93 239.487 521.724C237.959 519.463 237.551 516.775 237.694 513.971C237.766 511.145 238.478 508.237 238.695 505.079C238.776 503.52 238.793 501.762 237.927 500.178C237.507 499.413 236.871 498.788 236.099 498.383C235.373 497.98 234.592 497.78 233.825 497.681L233.748 497.951C235.118 498.578 236.283 499.527 236.615 500.766C236.981 501.987 236.78 503.386 236.498 504.793C235.886 507.614 234.944 510.576 234.695 513.802C234.603 515.408 234.665 517.094 235.11 518.731C235.545 520.369 236.297 521.906 237.323 523.255C238.332 524.617 239.739 525.811 241.432 526.383C243.115 526.979 244.969 526.84 246.518 526.234C249.221 525.164 251.135 522.877 251.974 520.271C253.181 520.661 254.672 520.691 255.939 520.066C257.312 519.42 258.281 518.326 259.003 517.213C259.712 516.081 260.258 514.912 260.678 513.715C261.131 512.411 261.476 511.09 261.724 509.754C261.872 509.766 262.019 509.783 262.173 509.775C262.229 509.772 262.281 509.755 262.337 509.749C262.839 513.081 263.787 516.284 265.039 519.327C262.06 521.519 258.837 523.359 255.435 524.81C250.161 527.059 244.82 528.279 239.818 528.55C236.69 528.719 233.696 528.518 230.933 527.962C231.821 532.983 233.368 538.217 235.593 543.432C245.008 565.505 275.906 573.48 275.906 573.48C275.906 573.48 281.428 563.639 283.928 551.022C283.929 551.036 283.926 551.047 283.925 551.059C283.895 552.483 284.328 554.038 285.176 555.519C285.218 555.595 285.281 555.657 285.327 555.729C285.245 555.849 285.148 555.96 285.07 556.082C283.279 558.872 282.905 562.685 284.563 566.114C285.386 567.802 286.794 569.382 288.592 570.274C290.377 571.19 292.383 571.414 294.182 571.196C295.964 571.008 297.687 570.452 299.242 569.562C300.779 568.689 302.045 567.474 303.126 566.195C305.247 563.577 306.613 560.606 308.145 557.998C308.93 556.721 309.773 555.509 310.949 554.883C312.113 554.218 313.741 554.432 315.31 555.054L315.442 554.788C314.747 554.251 313.971 553.782 313.087 553.504C312.212 553.217 311.21 553.147 310.305 553.401ZM258.647 512.839C257.577 514.922 256.359 516.948 254.84 518.101C254.158 518.61 253.299 518.884 252.322 518.843C252.578 517.297 252.5 515.714 252.094 514.201C251.887 513.425 251.543 512.617 251.257 511.957C250.984 511.324 250.763 510.669 250.597 509.999C250.274 508.707 250.289 507.502 250.805 506.632C251.31 505.747 252.438 505.132 253.719 504.861C255.324 504.544 257.064 504.644 258.767 505.115C258.603 505.55 258.52 506.022 258.547 506.517C258.614 507.752 259.329 508.791 260.338 509.345C259.776 510.533 259.231 511.704 258.647 512.839ZM287.171 547.621C287.187 547.488 287.211 547.354 287.229 547.221C289.21 548.816 290.474 549.69 290.474 549.69C290.474 549.69 292.22 548.186 294.754 545.533C295.152 546.4 295.342 547.269 295.188 548C294.98 549.062 294.126 549.98 292.932 550.691C292.34 551.047 291.687 551.369 290.986 551.635C290.277 551.902 289.418 552.237 288.693 552.657C288.16 552.967 287.656 553.323 287.186 553.721C286.796 551.886 286.902 549.741 287.171 547.621ZM287.715 543.971C287.799 543.44 287.886 542.911 287.967 542.373C288.328 542.225 288.673 542.031 288.972 541.754C289.349 541.405 289.624 540.983 289.803 540.525C291.03 541.233 292.146 542.12 293.111 543.158C292.189 544.142 291.243 545.103 290.274 546.041C289.407 545.368 288.554 544.678 287.715 543.971ZM304.824 538.29C305.756 540.666 306.305 543.142 306.422 545.556C306.544 547.965 306.3 550.348 305.378 552.401C304.439 554.449 302.814 556.089 300.665 557.189C298.503 558.294 295.851 558.654 293.21 558.344C291.904 558.209 290.591 557.825 289.514 557.179C288.687 556.698 288.024 555.981 287.609 555.119C288.198 554.743 288.832 554.443 289.497 554.228C290.214 553.985 290.892 553.873 291.731 553.738C292.594 553.587 293.436 553.336 294.241 552.991C295.046 552.618 295.86 552.147 296.516 551.419C297.179 550.711 297.711 549.759 297.857 548.683C298.138 546.826 297.43 545.072 296.455 543.701C298.686 541.235 300.77 538.842 303.281 535.187C303.896 536.184 304.394 537.235 304.824 538.29ZM274.466 570.109C267.502 567.876 245.561 559.618 238.187 542.327C236.66 538.76 235.43 535.073 234.512 531.303C236.284 531.445 238.109 531.466 239.972 531.365C245.426 531.07 251.156 529.701 256.543 527.403C263.674 524.36 269.83 519.9 274.25 514.627C276.279 517.835 278.043 521.202 279.527 524.695C286.889 541.951 277.667 563.533 274.466 570.109ZM282.421 524.364C282.319 524.105 282.23 523.845 282.12 523.589C279.939 518.479 277.298 513.833 274.366 509.774C272.556 512.508 270.173 515.123 267.352 517.509C266.152 514.468 265.355 511.282 264.982 508.034C265.319 507.448 265.475 506.775 265.43 506.1C265.386 505.426 265.143 504.779 264.732 504.242C264.634 500.775 264.763 497.361 265.145 494.042C271.756 497.108 279.7 498.532 287.957 498.085C295.977 497.651 303.549 495.479 309.709 491.892C310.546 495.677 311.081 499.621 311.3 503.661C312.15 519.298 301.503 533.845 294.51 541.634C293.206 540.524 291.689 539.69 290.053 539.183C290.037 538.161 289.639 537.182 288.938 536.438C287.852 535.266 286.281 534.855 284.945 535.257C284.824 533.876 284.635 532.502 284.378 531.139C285.892 530.694 287.592 530.303 289.417 530.204C295.785 529.859 301.135 533.162 301.002 530.694C300.868 528.231 295.299 520.936 288.937 521.28C286.45 521.415 284.22 522.706 282.421 524.364Z" fill="black" fill-opacity="0.5"/>
</g>
<g clip-path="url(#clip2_503_2)">
<path d="M372.725 299.857L343.07 296.211C342.097 296.086 341.114 296.352 340.337 296.951C339.56 297.551 339.053 298.434 338.927 299.407L338.924 299.438L335.232 329.034L318.939 341.714C318.165 342.317 317.661 343.203 317.54 344.177C317.418 345.15 317.689 346.132 318.291 346.907L359.194 399.466C359.797 400.241 360.683 400.744 361.657 400.865C362.63 400.987 363.612 400.717 364.387 400.114L434.466 345.576C435.241 344.974 435.744 344.088 435.865 343.114C435.987 342.141 435.716 341.158 435.114 340.384L394.211 287.825C393.608 287.05 392.722 286.547 391.749 286.425C390.775 286.304 389.793 286.574 389.018 287.177L372.725 299.857ZM345.843 303.992L364.432 306.311L343.525 322.581L345.843 303.992ZM427.001 342.009L362.762 392.002L326.404 345.282L390.643 295.289L427.001 342.009ZM357.558 349.167C356.009 350.373 354.045 350.914 352.097 350.671C350.15 350.428 348.379 349.421 347.173 347.872C345.968 346.323 345.427 344.359 345.67 342.412C345.913 340.464 346.919 338.693 348.468 337.488C350.017 336.282 351.981 335.742 353.929 335.984C355.876 336.227 357.648 337.234 358.853 338.783C360.058 340.332 360.599 342.296 360.356 344.243C360.113 346.191 359.107 347.962 357.558 349.167ZM416.617 340.714L372.817 374.8L367.943 350.463L386.605 359.381L379.293 322.876L416.617 340.714Z" fill="black" fill-opacity="0.5"/>
</g>
<g clip-path="url(#clip3_503_2)">
<path d="M734.611 289.284C732.827 283.646 726.603 279.488 720.712 279.997C714.824 280.51 711.495 285.492 713.275 291.129C715.057 296.767 721.28 300.925 727.174 300.415C733.064 299.903 736.393 294.921 734.611 289.284Z" fill="black" fill-opacity="0.5"/>
<path d="M722.825 274.996C728.268 273.288 730.38 267.948 727.543 263.073C724.703 258.197 717.993 255.631 712.549 257.338C707.11 259.048 704.996 264.387 707.832 269.262C710.671 274.14 717.384 276.707 722.825 274.996Z" fill="black" fill-opacity="0.5"/>
<path d="M730.566 254.674C735.538 253.395 737.689 248.687 735.368 244.156C733.049 239.625 727.14 236.99 722.166 238.268C717.193 239.546 715.044 244.255 717.364 248.784C719.683 253.315 725.594 255.952 730.566 254.674Z" fill="black" fill-opacity="0.5"/>
<path d="M740.758 245.099C742.918 249.518 748.579 252.169 753.398 251.022C758.218 249.874 760.375 245.365 758.215 240.948C756.056 236.53 750.395 233.878 745.577 235.025C740.755 236.171 738.599 240.681 740.758 245.099Z" fill="black" fill-opacity="0.5"/>
<path d="M774.109 259.788C778.331 260.282 780.792 257.355 779.607 253.247C778.425 249.141 774.037 245.406 769.815 244.91C765.59 244.412 763.129 247.341 764.314 251.449C765.499 255.558 769.887 259.292 774.109 259.788Z" fill="black" fill-opacity="0.5"/>
<path d="M770.012 290.777C767.751 288.069 765.8 285.731 766.239 283.63C766.494 282.412 767.587 281.103 769.458 279.721C780.8 277.855 798.27 274.311 800.832 269.84C801.857 268.053 800.769 263.785 798.983 262.592L798.839 262.504C796.818 261.345 792.156 261.928 786.687 263.282C786.953 262.312 787.126 261.317 787.202 260.313C787.702 252.399 782.611 244.266 773.235 238.002C765.946 233.131 756.486 229.717 745.884 228.132C732.275 226.098 717.747 231.109 708.871 240.902C702.279 248.172 695.557 261.337 700.944 282.775C703.33 292.284 710.833 301.653 722.063 309.157L722.067 309.159C731.083 315.183 741.557 319.279 750.806 320.404C761.144 321.658 769.01 319.095 772.957 313.187C779.966 302.696 774.212 295.806 770.012 290.777ZM797.68 264.543C798.5 265.091 799.177 268.008 798.796 268.672C796.626 272.457 775.161 276.671 761.431 278.562L760.815 276.302L760.415 274.821C773.223 269.537 793.882 262.363 797.68 264.543ZM754.692 276.516L758.188 275.57L759.127 279.038L755.636 279.986L754.692 276.516ZM751.185 317.297C742.405 316.231 732.427 312.319 723.805 306.558L723.802 306.557C713.216 299.483 706.176 290.767 703.978 282.013C698.925 261.915 705.109 249.705 711.187 243C719.38 233.963 732.818 229.342 745.424 231.228C755.572 232.745 764.589 235.987 771.497 240.603C779.799 246.15 784.501 253.443 784.078 260.115C783.988 261.551 783.653 262.925 783.113 264.239C772.699 267.219 760.901 272.072 758.636 273.015L752.257 274.743C750.374 273.457 747.922 273.016 745.999 274.627C738.929 280.541 731.078 281.893 731.078 281.893C731.078 281.893 744.861 287.621 749.017 286.444C751.267 285.807 753.06 284.446 754.123 282.824L760.802 281.015C761.603 280.909 762.8 280.743 764.282 280.526C763.735 281.334 763.351 282.15 763.175 282.988C762.426 286.573 764.944 289.587 767.61 292.779C771.765 297.757 776.064 302.903 770.355 311.448C767.098 316.326 760.288 318.401 751.185 317.297Z" fill="black" fill-opacity="0.5"/>
<path d="M766.411 300.801C764.628 295.164 758.403 291.005 752.513 291.515C746.623 292.025 743.295 297.01 745.076 302.647C746.857 308.284 753.082 312.442 758.974 311.933C764.865 311.424 768.195 306.438 766.411 300.801ZM758.096 309.155C753.809 309.528 749.275 306.498 747.979 302.395C746.682 298.291 749.106 294.664 753.393 294.293C757.679 293.919 762.213 296.948 763.51 301.052C764.807 305.156 762.384 308.782 758.096 309.155Z" fill="black" fill-opacity="0.5"/>
</g>
<g clip-path="url(#clip4_503_2)">
<path d="M928.008 449.799C932.172 450.156 936.364 449.649 940.322 448.309C944.28 446.97 947.919 444.828 951.011 442.017C954.103 439.205 956.58 435.786 958.289 431.972C959.997 428.159 960.899 424.034 960.938 419.855C960.978 415.677 960.154 411.535 958.518 407.69C956.882 403.845 954.469 400.379 951.431 397.51C948.393 394.641 944.795 392.43 940.863 391.016C936.931 389.603 932.749 389.016 928.58 389.294C930.246 386.501 931.214 383.348 931.403 380.101C931.592 376.854 930.996 373.61 929.665 370.643C928.334 367.675 926.308 365.072 923.757 363.054C921.207 361.036 918.208 359.662 915.014 359.049C911.82 358.435 908.525 358.601 905.409 359.531C902.292 360.461 899.446 362.129 897.111 364.392C894.776 366.656 893.02 369.449 891.993 372.534C890.966 375.62 890.698 378.908 891.211 382.12C888.225 381.176 885.081 380.836 881.963 381.119C878.844 381.402 875.813 382.302 873.045 383.767C870.278 385.233 867.829 387.234 865.843 389.655C863.856 392.075 862.37 394.867 861.472 397.867C860.575 400.867 860.283 404.016 860.613 407.13C860.944 410.244 861.89 413.261 863.398 416.006C864.905 418.75 866.944 421.168 869.394 423.117C871.845 425.067 874.659 426.51 877.672 427.362C874.032 431.027 871.932 435.945 871.8 441.109C871.668 446.273 873.516 451.292 876.964 455.139C880.412 458.985 885.201 461.367 890.348 461.798C895.496 462.229 900.614 460.675 904.653 457.456C904.976 457.2 905.264 456.923 905.566 456.652C905.917 458.237 906.592 459.732 907.549 461.044C908.505 462.355 909.723 463.454 911.125 464.273C912.527 465.091 914.083 465.61 915.695 465.798C917.308 465.986 918.941 465.838 920.494 465.364C922.046 464.89 923.484 464.1 924.716 463.043C925.949 461.987 926.949 460.687 927.655 459.225C928.361 457.763 928.756 456.171 928.817 454.549C928.878 452.927 928.602 451.309 928.008 449.799ZM949.077 404.872C951.986 408.529 953.745 412.967 954.132 417.623C954.518 422.28 953.516 426.946 951.25 431.033C948.985 435.12 945.558 438.443 941.404 440.582C937.25 442.721 932.555 443.581 927.912 443.052C923.27 442.523 918.888 440.629 915.322 437.61C911.756 434.59 909.165 430.582 907.878 426.09C906.59 421.598 906.663 416.826 908.087 412.376C909.512 407.925 912.224 403.998 915.881 401.089C920.788 397.196 927.038 395.408 933.262 396.117C939.485 396.826 945.173 399.975 949.077 404.872ZM921.766 370.535C923.428 372.624 924.433 375.16 924.654 377.821C924.875 380.482 924.302 383.148 923.007 385.484C921.713 387.819 919.755 389.718 917.381 390.94C915.007 392.163 912.324 392.654 909.671 392.351C907.018 392.049 904.515 390.967 902.477 389.242C900.439 387.516 898.959 385.226 898.223 382.659C897.487 380.092 897.529 377.365 898.343 374.822C899.157 372.279 900.707 370.035 902.796 368.373C905.6 366.148 909.172 365.127 912.728 365.532C916.284 365.937 919.534 367.736 921.766 370.535ZM881.482 450.011C879.82 447.922 878.815 445.386 878.594 442.725C878.373 440.064 878.946 437.398 880.241 435.062C881.535 432.727 883.493 430.828 885.867 429.606C888.241 428.383 890.924 427.892 893.577 428.195C896.23 428.497 898.733 429.579 900.771 431.304C902.809 433.03 904.289 435.32 905.025 437.887C905.761 440.454 905.719 443.181 904.905 445.724C904.091 448.267 902.541 450.511 900.452 452.173C897.648 454.398 894.076 455.419 890.52 455.014C886.964 454.609 883.714 452.81 881.482 450.011Z" fill="black" fill-opacity="0.5"/>
</g>
<defs>
<clipPath id="clip0_503_2">
<rect width="64" height="64" fill="white" transform="translate(920.114 504) rotate(44.822)"/>
</clipPath>
<clipPath id="clip1_503_2">
<rect width="90" height="90" fill="white" transform="translate(226 488.867) rotate(-3.10005)"/>
</clipPath>
<clipPath id="clip2_503_2">
<rect width="111" height="111" fill="white" transform="translate(292 325.172) rotate(-37.8909)"/>
</clipPath>
<clipPath id="clip3_503_2">
<rect width="100.106" height="100.106" fill="white" transform="translate(730.614 202) rotate(33.7484)"/>
</clipPath>
<clipPath id="clip4_503_2">
<rect width="108" height="108" fill="white" transform="translate(915.524 341) rotate(51.502)"/>
</clipPath>
</defs>
</svg>
