<svg width="1263" height="698" viewBox="0 0 1263 698" fill="none" xmlns="http://www.w3.org/2000/svg">
<path fill-rule="evenodd" clip-rule="evenodd" d="M3 309L13.9477 264.976C23.9002 220.951 44.8005 131.902 65.7007 112.891C86.601 93.881 107.501 144.909 128.401 182.93C149.302 220.951 170.202 245.965 191.102 226.955C212.998 207.944 233.898 144.909 254.798 150.913C275.698 156.916 296.599 232.958 317.499 257.972C338.399 283.986 359.299 257.972 380.2 226.955C401.1 194.937 422 156.916 442.9 137.905C463.8 119.895 484.701 119.895 505.601 125.899C526.501 131.902 547.401 144.909 568.302 150.913C589.202 156.916 610.102 156.916 631.998 137.905C652.898 119.895 673.798 81.8743 694.698 87.8776C715.599 93.881 736.499 144.909 757.399 169.923C778.299 194.937 799.2 194.937 820.1 175.926C841 156.916 861.9 119.895 882.8 131.902C903.701 144.909 924.601 207.944 945.501 226.955C966.401 245.965 987.302 220.951 1008.2 175.926C1029.1 131.902 1051 68.8671 1071.9 36.8494C1092.8 5.83225 1113.7 5.83224 1134.6 49.8566C1155.5 93.881 1176.4 182.93 1197.3 213.947C1218.2 245.965 1239.1 220.951 1249.05 207.944L1260 194.937V309H1249.05C1239.1 309 1218.2 309 1197.3 309C1176.4 309 1155.5 309 1134.6 309C1113.7 309 1092.8 309 1071.9 309C1051 309 1029.1 309 1008.2 309C987.302 309 966.401 309 945.501 309C924.601 309 903.701 309 882.8 309C861.9 309 841 309 820.1 309C799.2 309 778.299 309 757.399 309C736.499 309 715.599 309 694.698 309C673.798 309 652.898 309 631.998 309C610.102 309 589.202 309 568.302 309C547.401 309 526.501 309 505.601 309C484.701 309 463.8 309 442.9 309C422 309 401.1 309 380.2 309C359.299 309 338.399 309 317.499 309C296.599 309 275.698 309 254.798 309C233.898 309 212.998 309 191.102 309C170.202 309 149.302 309 128.401 309C107.501 309 86.601 309 65.7007 309C44.8005 309 23.9002 309 13.9477 309H3Z" fill="#23DFEB"/>
<path fill-rule="evenodd" clip-rule="evenodd" d="M0 163.039C18.2982 156.06 46.8567 149.461 74.6865 175.162C89.7573 188.139 104.627 209.794 119.385 231.286C138.169 258.642 156.771 285.732 175.373 294.322C205.493 306.77 234.81 273.61 264.03 240.559C268.041 236.022 272.05 231.487 276.059 227.073C310.314 189.319 343.53 159.824 377.784 175.162C391.021 180.804 404.259 193.754 417.562 206.768C437.64 226.41 457.867 246.198 478.47 241.231C503.725 235.848 529.58 191.591 555.122 147.869C563.174 134.086 571.195 120.356 579.157 107.913C612.373 54.8223 646.627 25.3273 679.843 11.1698C713.059 -4.16763 747.314 -4.16763 780.53 18.2485C805.911 34.8586 830.723 63.7763 855.388 92.522C864.009 102.57 872.613 112.598 881.216 122.071C915.47 159.824 948.686 189.319 982.941 196.398C1016.16 204.657 1049.37 189.319 1083.63 144.487C1092.92 131.951 1102.2 117.108 1111.51 102.23C1135.5 63.8989 1159.64 25.3273 1184.31 25.3273C1214.26 25.3273 1245.06 85.7592 1263 125.319V648C1263 675.614 1240.61 698 1213 698H50C22.3858 698 0 675.614 0 648V163.039Z" fill="white"/>
</svg>
