<svg width="284" height="46" viewBox="0 0 284 46" fill="none" xmlns="http://www.w3.org/2000/svg">
<g filter="url(#filter0_d_0_1436)">
<path d="M30.5547 37H26.0312V21.2266H8.82812V37H4.32812V2.875H8.82812V17.5469H26.0312V2.875H30.5547V37ZM36.7188 24.0859C36.7188 21.6016 37.2031 19.3672 38.1719 17.3828C39.1562 15.3984 40.5156 13.8672 42.25 12.7891C44 11.7109 45.9922 11.1719 48.2266 11.1719C51.6797 11.1719 54.4688 12.3672 56.5938 14.7578C58.7344 17.1484 59.8047 20.3281 59.8047 24.2969V24.6016C59.8047 27.0703 59.3281 29.2891 58.375 31.2578C57.4375 33.2109 56.0859 34.7344 54.3203 35.8281C52.5703 36.9219 50.5547 37.4688 48.2734 37.4688C44.8359 37.4688 42.0469 36.2734 39.9062 33.8828C37.7812 31.4922 36.7188 28.3281 36.7188 24.3906V24.0859ZM41.0781 24.6016C41.0781 27.4141 41.7266 29.6719 43.0234 31.375C44.3359 33.0781 46.0859 33.9297 48.2734 33.9297C50.4766 33.9297 52.2266 33.0703 53.5234 31.3516C54.8203 29.6172 55.4688 27.1953 55.4688 24.0859C55.4688 21.3047 54.8047 19.0547 53.4766 17.3359C52.1641 15.6016 50.4141 14.7344 48.2266 14.7344C46.0859 14.7344 44.3594 15.5859 43.0469 17.2891C41.7344 18.9922 41.0781 21.4297 41.0781 24.6016ZM80.8984 34.4922C79.2109 36.4766 76.7344 37.4688 73.4688 37.4688C70.7656 37.4688 68.7031 36.6875 67.2812 35.125C65.875 33.5469 65.1641 31.2188 65.1484 28.1406V11.6406H69.4844V28.0234C69.4844 31.8672 71.0469 33.7891 74.1719 33.7891C77.4844 33.7891 79.6875 32.5547 80.7812 30.0859V11.6406H85.1172V37H80.9922L80.8984 34.4922ZM106.492 30.2734C106.492 29.1016 106.047 28.1953 105.156 27.5547C104.281 26.8984 102.742 26.3359 100.539 25.8672C98.3516 25.3984 96.6094 24.8359 95.3125 24.1797C94.0312 23.5234 93.0781 22.7422 92.4531 21.8359C91.8438 20.9297 91.5391 19.8516 91.5391 18.6016C91.5391 16.5234 92.4141 14.7656 94.1641 13.3281C95.9297 11.8906 98.1797 11.1719 100.914 11.1719C103.789 11.1719 106.117 11.9141 107.898 13.3984C109.695 14.8828 110.594 16.7812 110.594 19.0938H106.234C106.234 17.9062 105.727 16.8828 104.711 16.0234C103.711 15.1641 102.445 14.7344 100.914 14.7344C99.3359 14.7344 98.1016 15.0781 97.2109 15.7656C96.3203 16.4531 95.875 17.3516 95.875 18.4609C95.875 19.5078 96.2891 20.2969 97.1172 20.8281C97.9453 21.3594 99.4375 21.8672 101.594 22.3516C103.766 22.8359 105.523 23.4141 106.867 24.0859C108.211 24.7578 109.203 25.5703 109.844 26.5234C110.5 27.4609 110.828 28.6094 110.828 29.9688C110.828 32.2344 109.922 34.0547 108.109 35.4297C106.297 36.7891 103.945 37.4688 101.055 37.4688C99.0234 37.4688 97.2266 37.1094 95.6641 36.3906C94.1016 35.6719 92.875 34.6719 91.9844 33.3906C91.1094 32.0938 90.6719 30.6953 90.6719 29.1953H95.0078C95.0859 30.6484 95.6641 31.8047 96.7422 32.6641C97.8359 33.5078 99.2734 33.9297 101.055 33.9297C102.695 33.9297 104.008 33.6016 104.992 32.9453C105.992 32.2734 106.492 31.3828 106.492 30.2734ZM127 37.4688C123.562 37.4688 120.766 36.3438 118.609 34.0938C116.453 31.8281 115.375 28.8047 115.375 25.0234V24.2266C115.375 21.7109 115.852 19.4688 116.805 17.5C117.773 15.5156 119.117 13.9688 120.836 12.8594C122.57 11.7344 124.445 11.1719 126.461 11.1719C129.758 11.1719 132.32 12.2578 134.148 14.4297C135.977 16.6016 136.891 19.7109 136.891 23.7578V25.5625H119.711C119.773 28.0625 120.5 30.0859 121.891 31.6328C123.297 33.1641 125.078 33.9297 127.234 33.9297C128.766 33.9297 130.062 33.6172 131.125 32.9922C132.188 32.3672 133.117 31.5391 133.914 30.5078L136.562 32.5703C134.438 35.8359 131.25 37.4688 127 37.4688ZM126.461 14.7344C124.711 14.7344 123.242 15.375 122.055 16.6562C120.867 17.9219 120.133 19.7031 119.852 22H132.555V21.6719C132.43 19.4688 131.836 17.7656 130.773 16.5625C129.711 15.3438 128.273 14.7344 126.461 14.7344ZM152.688 24.0859C152.688 21.6016 153.172 19.3672 154.141 17.3828C155.125 15.3984 156.484 13.8672 158.219 12.7891C159.969 11.7109 161.961 11.1719 164.195 11.1719C167.648 11.1719 170.438 12.3672 172.562 14.7578C174.703 17.1484 175.773 20.3281 175.773 24.2969V24.6016C175.773 27.0703 175.297 29.2891 174.344 31.2578C173.406 33.2109 172.055 34.7344 170.289 35.8281C168.539 36.9219 166.523 37.4688 164.242 37.4688C160.805 37.4688 158.016 36.2734 155.875 33.8828C153.75 31.4922 152.688 28.3281 152.688 24.3906V24.0859ZM157.047 24.6016C157.047 27.4141 157.695 29.6719 158.992 31.375C160.305 33.0781 162.055 33.9297 164.242 33.9297C166.445 33.9297 168.195 33.0703 169.492 31.3516C170.789 29.6172 171.438 27.1953 171.438 24.0859C171.438 21.3047 170.773 19.0547 169.445 17.3359C168.133 15.6016 166.383 14.7344 164.195 14.7344C162.055 14.7344 160.328 15.5859 159.016 17.2891C157.703 18.9922 157.047 21.4297 157.047 24.6016ZM183.344 37V14.9922H179.336V11.6406H183.344V9.03906C183.344 6.32031 184.07 4.21875 185.523 2.73438C186.977 1.25 189.031 0.507812 191.688 0.507812C192.688 0.507812 193.68 0.640625 194.664 0.90625L194.43 4.42188C193.695 4.28125 192.914 4.21094 192.086 4.21094C190.68 4.21094 189.594 4.625 188.828 5.45312C188.062 6.26563 187.68 7.4375 187.68 8.96875V11.6406H193.094V14.9922H187.68V37H183.344Z" fill="white"/>
<path d="M229.328 28.0938H215.031L211.82 37H207.18L220.211 2.875H224.148L237.203 37H232.586L229.328 28.0938ZM216.391 24.3906H227.992L222.18 8.42969L216.391 24.3906ZM253.375 15.5312C252.719 15.4219 252.008 15.3672 251.242 15.3672C248.398 15.3672 246.469 16.5781 245.453 19V37H241.117V11.6406H245.336L245.406 14.5703C246.828 12.3047 248.844 11.1719 251.453 11.1719C252.297 11.1719 252.938 11.2812 253.375 11.5V15.5312ZM264.438 5.5V11.6406H269.172V14.9922H264.438V30.7188C264.438 31.7344 264.648 32.5 265.07 33.0156C265.492 33.5156 266.211 33.7656 267.227 33.7656C267.727 33.7656 268.414 33.6719 269.289 33.4844V37C268.148 37.3125 267.039 37.4688 265.961 37.4688C264.023 37.4688 262.562 36.8828 261.578 35.7109C260.594 34.5391 260.102 32.875 260.102 30.7188V14.9922H255.484V11.6406H260.102V5.5H264.438ZM274.352 34.7266C274.352 33.9766 274.57 33.3516 275.008 32.8516C275.461 32.3516 276.133 32.1016 277.023 32.1016C277.914 32.1016 278.586 32.3516 279.039 32.8516C279.508 33.3516 279.742 33.9766 279.742 34.7266C279.742 35.4453 279.508 36.0469 279.039 36.5312C278.586 37.0156 277.914 37.2578 277.023 37.2578C276.133 37.2578 275.461 37.0156 275.008 36.5312C274.57 36.0469 274.352 35.4453 274.352 34.7266Z" fill="black"/>
<path d="M30.5547 37V38H31.5547V37H30.5547ZM26.0312 37H25.0312V38H26.0312V37ZM26.0312 21.2266H27.0312V20.2266H26.0312V21.2266ZM8.82812 21.2266V20.2266H7.82812V21.2266H8.82812ZM8.82812 37V38H9.82812V37H8.82812ZM4.32812 37H3.32812V38H4.32812V37ZM4.32812 2.875V1.875H3.32812V2.875H4.32812ZM8.82812 2.875H9.82812V1.875H8.82812V2.875ZM8.82812 17.5469H7.82812V18.5469H8.82812V17.5469ZM26.0312 17.5469V18.5469H27.0312V17.5469H26.0312ZM26.0312 2.875V1.875H25.0312V2.875H26.0312ZM30.5547 2.875H31.5547V1.875H30.5547V2.875ZM30.5547 36H26.0312V38H30.5547V36ZM27.0312 37V21.2266H25.0312V37H27.0312ZM26.0312 20.2266H8.82812V22.2266H26.0312V20.2266ZM7.82812 21.2266V37H9.82812V21.2266H7.82812ZM8.82812 36H4.32812V38H8.82812V36ZM5.32812 37V2.875H3.32812V37H5.32812ZM4.32812 3.875H8.82812V1.875H4.32812V3.875ZM7.82812 2.875V17.5469H9.82812V2.875H7.82812ZM8.82812 18.5469H26.0312V16.5469H8.82812V18.5469ZM27.0312 17.5469V2.875H25.0312V17.5469H27.0312ZM26.0312 3.875H30.5547V1.875H26.0312V3.875ZM29.5547 2.875V37H31.5547V2.875H29.5547ZM38.1719 17.3828L37.276 16.9384L37.2732 16.9441L38.1719 17.3828ZM42.25 12.7891L41.7255 11.9377L41.7221 11.9398L42.25 12.7891ZM56.5938 14.7578L55.8463 15.4222L55.8488 15.4249L56.5938 14.7578ZM58.375 31.2578L57.4749 30.8221L57.4735 30.8251L58.375 31.2578ZM54.3203 35.8281L53.7937 34.978L53.7903 34.9801L54.3203 35.8281ZM39.9062 33.8828L39.1588 34.5472L39.1613 34.5499L39.9062 33.8828ZM43.0234 31.375L42.2278 31.9808L42.2314 31.9854L43.0234 31.375ZM53.5234 31.3516L54.3217 31.9539L54.3243 31.9504L53.5234 31.3516ZM53.4766 17.3359L52.6791 17.9394L52.6853 17.9474L53.4766 17.3359ZM37.7188 24.0859C37.7188 21.7344 38.1764 19.653 39.0705 17.8215L37.2732 16.9441C36.2299 19.0813 35.7188 21.4687 35.7188 24.0859H37.7188ZM39.0677 17.8272C39.9767 15.9947 41.2148 14.61 42.7779 13.6383L41.7221 11.9398C39.8165 13.1243 38.3358 14.8021 37.276 16.9384L39.0677 17.8272ZM42.7745 13.6405C44.3532 12.6679 46.1607 12.1719 48.2266 12.1719V10.1719C45.8237 10.1719 43.6468 10.754 41.7255 11.9377L42.7745 13.6405ZM48.2266 12.1719C51.4196 12.1719 53.9275 13.2635 55.8463 15.4222L57.3412 14.0934C55.01 11.4709 51.9397 10.1719 48.2266 10.1719V12.1719ZM55.8488 15.4249C57.7887 17.5914 58.8047 20.5135 58.8047 24.2969H60.8047C60.8047 20.1427 59.68 16.7055 57.3387 14.0907L55.8488 15.4249ZM58.8047 24.2969V24.6016H60.8047V24.2969H58.8047ZM58.8047 24.6016C58.8047 26.9389 58.3543 29.0057 57.4749 30.8221L59.2751 31.6936C60.302 29.5724 60.8047 27.2017 60.8047 24.6016H58.8047ZM57.4735 30.8251C56.6148 32.614 55.3899 33.9892 53.7937 34.978L54.8469 36.6782C56.782 35.4795 58.2602 33.8079 59.2765 31.6905L57.4735 30.8251ZM53.7903 34.9801C52.2157 35.9643 50.3877 36.4688 48.2734 36.4688V38.4688C50.7217 38.4688 52.9249 37.8795 54.8503 36.6761L53.7903 34.9801ZM48.2734 36.4688C45.0975 36.4688 42.5875 35.3781 40.6512 33.2157L39.1613 34.5499C41.5063 37.1688 44.5744 38.4688 48.2734 38.4688V36.4688ZM40.6537 33.2184C38.7267 31.0506 37.7188 28.1422 37.7188 24.3906H35.7188C35.7188 28.514 36.8358 31.9337 39.1588 34.5472L40.6537 33.2184ZM37.7188 24.3906V24.0859H35.7188V24.3906H37.7188ZM40.0781 24.6016C40.0781 27.5642 40.762 30.0559 42.2278 31.9808L43.819 30.7692C42.6911 29.2879 42.0781 27.2639 42.0781 24.6016H40.0781ZM42.2314 31.9854C43.737 33.9392 45.7821 34.9297 48.2734 34.9297V32.9297C46.3898 32.9297 44.9349 32.2171 43.8155 30.7646L42.2314 31.9854ZM48.2734 34.9297C50.7817 34.9297 52.8307 33.9298 54.3217 31.9539L52.7252 30.7492C51.6224 32.2108 50.1714 32.9297 48.2734 32.9297V34.9297ZM54.3243 31.9504C55.796 29.9823 56.4688 27.3203 56.4688 24.0859H54.4688C54.4688 27.0703 53.8447 29.2521 52.7226 30.7527L54.3243 31.9504ZM56.4688 24.0859C56.4688 21.1461 55.7652 18.6622 54.2678 16.7245L52.6853 17.9474C53.8442 19.4471 54.4688 21.4633 54.4688 24.0859H56.4688ZM54.274 16.7325C52.7712 14.7467 50.7252 13.7344 48.2266 13.7344V15.7344C50.1029 15.7344 51.557 16.4565 52.6792 17.9394L54.274 16.7325ZM48.2266 13.7344C45.7742 13.7344 43.7556 14.7311 42.2548 16.6786L43.839 17.8995C44.9631 16.4407 46.3977 15.7344 48.2266 15.7344V13.7344ZM42.2548 16.6786C40.7568 18.6225 40.0781 21.3096 40.0781 24.6016H42.0781C42.0781 21.5498 42.712 19.3619 43.839 17.8995L42.2548 16.6786ZM80.8984 34.4922L81.8977 34.4548L81.8017 31.8864L80.1366 33.8444L80.8984 34.4922ZM67.2812 35.125L66.5346 35.7903L66.5416 35.798L67.2812 35.125ZM65.1484 28.1406H64.1484L64.1485 28.1457L65.1484 28.1406ZM65.1484 11.6406V10.6406H64.1484V11.6406H65.1484ZM69.4844 11.6406H70.4844V10.6406H69.4844V11.6406ZM80.7812 30.0859L81.6955 30.491L81.7812 30.2975V30.0859H80.7812ZM80.7812 11.6406V10.6406H79.7812V11.6406H80.7812ZM85.1172 11.6406H86.1172V10.6406H85.1172V11.6406ZM85.1172 37V38H86.1172V37H85.1172ZM80.9922 37L79.9929 37.0374L80.0289 38H80.9922V37ZM80.1366 33.8444C78.6858 35.5504 76.5217 36.4688 73.4688 36.4688V38.4688C76.947 38.4688 79.7361 37.4027 81.6602 35.14L80.1366 33.8444ZM73.4688 36.4688C70.9635 36.4688 69.2034 35.7514 68.0209 34.452L66.5416 35.798C68.2029 37.6236 70.5678 38.4688 73.4688 38.4688V36.4688ZM68.0278 34.4597C66.8439 33.1311 66.1634 31.0792 66.1484 28.1355L64.1485 28.1457C64.1648 31.3583 64.9061 33.9627 66.5347 35.7903L68.0278 34.4597ZM66.1484 28.1406V11.6406H64.1484V28.1406H66.1484ZM65.1484 12.6406H69.4844V10.6406H65.1484V12.6406ZM68.4844 11.6406V28.0234H70.4844V11.6406H68.4844ZM68.4844 28.0234C68.4844 30.055 68.8932 31.7643 69.8803 32.9785C70.8997 34.2323 72.3942 34.7891 74.1719 34.7891V32.7891C72.8246 32.7891 71.9753 32.3849 71.4322 31.7168C70.8568 31.0092 70.4844 29.8356 70.4844 28.0234H68.4844ZM74.1719 34.7891C75.9475 34.7891 77.5071 34.4586 78.7974 33.7357C80.101 33.0053 81.0675 31.9085 81.6955 30.491L79.867 29.6809C79.4012 30.7321 78.7193 31.4869 77.8198 31.9909C76.907 32.5023 75.7087 32.7891 74.1719 32.7891V34.7891ZM81.7812 30.0859V11.6406H79.7812V30.0859H81.7812ZM80.7812 12.6406H85.1172V10.6406H80.7812V12.6406ZM84.1172 11.6406V37H86.1172V11.6406H84.1172ZM85.1172 36H80.9922V38H85.1172V36ZM81.9915 36.9626L81.8977 34.4548L79.8991 34.5295L79.9929 37.0374L81.9915 36.9626ZM105.156 27.5547L104.556 28.3547L104.564 28.3607L104.572 28.3665L105.156 27.5547ZM100.539 25.8672L100.33 26.845L100.331 26.8453L100.539 25.8672ZM95.3125 24.1797L94.8566 25.0697L94.861 25.072L95.3125 24.1797ZM92.4531 21.8359L91.6232 22.394L91.6299 22.4037L92.4531 21.8359ZM94.1641 13.3281L93.5327 12.5526L93.5293 12.5554L94.1641 13.3281ZM107.898 13.3984L107.258 14.1667L107.262 14.1694L107.898 13.3984ZM110.594 19.0938V20.0938H111.594V19.0938H110.594ZM106.234 19.0938H105.234V20.0938H106.234V19.0938ZM104.711 16.0234L104.059 16.7819L104.065 16.7868L104.711 16.0234ZM101.594 22.3516L101.375 23.3272L101.376 23.3276L101.594 22.3516ZM109.844 26.5234L109.014 27.0813L109.019 27.0891L109.025 27.0969L109.844 26.5234ZM108.109 35.4297L108.709 36.2297L108.714 36.2264L108.109 35.4297ZM91.9844 33.3906L91.1553 33.95L91.1633 33.9614L91.9844 33.3906ZM90.6719 29.1953V28.1953H89.6719V29.1953H90.6719ZM95.0078 29.1953L96.0064 29.1416L95.9555 28.1953H95.0078V29.1953ZM96.7422 32.6641L96.1189 33.446L96.1251 33.451L96.1314 33.4558L96.7422 32.6641ZM104.992 32.9453L105.547 33.7774L105.55 33.7754L104.992 32.9453ZM107.492 30.2734C107.492 28.8055 106.912 27.5859 105.74 26.7429L104.572 28.3665C105.182 28.8047 105.492 29.3976 105.492 30.2734H107.492ZM105.756 26.7547C104.696 25.9598 102.973 25.3627 100.747 24.8891L100.331 26.8453C102.511 27.3092 103.866 27.8371 104.556 28.3547L105.756 26.7547ZM100.749 24.8894C98.6051 24.4301 96.9548 23.89 95.764 23.2874L94.861 25.072C96.264 25.7819 98.098 26.3668 100.33 26.845L100.749 24.8894ZM95.7684 23.2896C94.5905 22.6863 93.783 22.0028 93.2763 21.2682L91.6299 22.4037C92.3733 23.4816 93.472 24.3605 94.8566 25.0697L95.7684 23.2896ZM93.283 21.2779C92.8 20.5596 92.5391 19.6824 92.5391 18.6016H90.5391C90.5391 20.0207 90.8875 21.2998 91.6233 22.3939L93.283 21.2779ZM92.5391 18.6016C92.5391 16.852 93.2564 15.3678 94.7988 14.1009L93.5293 12.5554C91.5717 14.1634 90.5391 16.1949 90.5391 18.6016H92.5391ZM94.7954 14.1036C96.3487 12.839 98.3617 12.1719 100.914 12.1719V10.1719C97.9977 10.1719 95.5107 10.9422 93.5327 12.5526L94.7954 14.1036ZM100.914 12.1719C103.613 12.1719 105.697 12.8653 107.258 14.1667L108.539 12.6302C106.538 10.9628 103.965 10.1719 100.914 10.1719V12.1719ZM107.262 14.1694C108.831 15.4655 109.594 17.0822 109.594 19.0938H111.594C111.594 16.4803 110.56 14.3001 108.535 12.6275L107.262 14.1694ZM110.594 18.0938H106.234V20.0938H110.594V18.0938ZM107.234 19.0938C107.234 17.5745 106.567 16.2837 105.357 15.2601L104.065 16.7868C104.886 17.4819 105.234 18.238 105.234 19.0938H107.234ZM105.363 15.265C104.153 14.2251 102.644 13.7344 100.914 13.7344V15.7344C102.247 15.7344 103.269 16.103 104.059 16.7819L105.363 15.265ZM100.914 13.7344C99.2019 13.7344 97.7239 14.1064 96.5999 14.974L97.822 16.5572C98.4793 16.0498 99.4699 15.7344 100.914 15.7344V13.7344ZM96.5999 14.974C95.468 15.8477 94.875 17.0366 94.875 18.4609H96.875C96.875 17.6666 97.1726 17.0585 97.822 16.5572L96.5999 14.974ZM94.875 18.4609C94.875 19.8223 95.4411 20.941 96.5772 21.6698L97.6571 19.9864C97.137 19.6528 96.875 19.1934 96.875 18.4609H94.875ZM96.5772 21.6698C97.5659 22.3041 99.2108 22.8412 101.375 23.3272L101.813 21.3759C99.6642 20.8932 98.3247 20.4147 97.6571 19.9864L96.5772 21.6698ZM101.376 23.3276C103.503 23.8018 105.175 24.3578 106.42 24.9804L107.314 23.1915C105.872 22.4703 104.029 21.87 101.811 21.3755L101.376 23.3276ZM106.42 24.9804C107.655 25.5981 108.495 26.3091 109.014 27.0813L110.674 25.9656C109.911 24.8315 108.766 23.9175 107.314 23.1915L106.42 24.9804ZM109.025 27.0969C109.542 27.8367 109.828 28.7751 109.828 29.9688H111.828C111.828 28.4437 111.458 27.0852 110.663 25.95L109.025 27.0969ZM109.828 29.9688C109.828 31.92 109.069 33.4461 107.505 34.633L108.714 36.2264C110.774 34.6632 111.828 32.5487 111.828 29.9688H109.828ZM107.509 34.6297C105.913 35.8273 103.789 36.4688 101.055 36.4688V38.4688C104.102 38.4688 106.681 37.7509 108.709 36.2297L107.509 34.6297ZM101.055 36.4688C99.1419 36.4688 97.4918 36.1307 96.082 35.4821L95.2462 37.2991C96.9613 38.0881 98.905 38.4688 101.055 38.4688V36.4688ZM96.082 35.4821C94.6646 34.8301 93.5841 33.9399 92.8055 32.8199L91.1633 33.9614C92.1659 35.4039 93.5386 36.5136 95.2462 37.2991L96.082 35.4821ZM92.8133 32.8313C92.0447 31.6922 91.6719 30.4871 91.6719 29.1953H89.6719C89.6719 30.9035 90.174 32.4953 91.1554 33.9499L92.8133 32.8313ZM90.6719 30.1953H95.0078V28.1953H90.6719V30.1953ZM94.0093 29.249C94.1018 30.9694 94.8037 32.3977 96.1189 33.446L97.3655 31.8821C96.5244 31.2116 96.0701 30.3275 96.0064 29.1416L94.0093 29.249ZM96.1314 33.4558C97.4451 34.4693 99.1169 34.9297 101.055 34.9297V32.9297C99.43 32.9297 98.2268 32.5463 97.353 31.8723L96.1314 33.4558ZM101.055 34.9297C102.819 34.9297 104.346 34.5779 105.547 33.7774L104.437 32.1133C103.67 32.6252 102.572 32.9297 101.055 32.9297V34.9297ZM105.55 33.7754C106.798 32.9366 107.492 31.7484 107.492 30.2734H105.492C105.492 31.0172 105.186 31.6103 104.435 32.1153L105.55 33.7754ZM118.609 34.0938L117.885 34.7832L117.887 34.7857L118.609 34.0938ZM116.805 17.5L115.906 17.0613L115.905 17.0643L116.805 17.5ZM120.836 12.8594L121.378 13.6996L121.38 13.6983L120.836 12.8594ZM136.891 25.5625V26.5625H137.891V25.5625H136.891ZM119.711 25.5625V24.5625H118.686L118.711 25.5875L119.711 25.5625ZM121.891 31.6328L121.147 32.3014L121.154 32.3092L121.891 31.6328ZM133.914 30.5078L134.528 29.7188L133.737 29.1021L133.123 29.8964L133.914 30.5078ZM136.562 32.5703L137.401 33.1157L137.902 32.3458L137.177 31.7813L136.562 32.5703ZM122.055 16.6562L122.784 17.3405L122.788 17.336L122.055 16.6562ZM119.852 22L118.859 21.8785L118.722 23H119.852V22ZM132.555 22V23H133.555V22H132.555ZM132.555 21.6719H133.555V21.6435L133.553 21.6152L132.555 21.6719ZM130.773 16.5625L130.02 17.2196L130.024 17.2244L130.773 16.5625ZM127 36.4688C123.804 36.4688 121.279 35.4337 119.331 33.4018L117.887 34.7857C120.253 37.2538 123.321 38.4688 127 38.4688V36.4688ZM119.334 33.4043C117.39 31.3621 116.375 28.6049 116.375 25.0234H114.375C114.375 29.0045 115.516 32.2942 117.885 34.7832L119.334 33.4043ZM116.375 25.0234V24.2266H114.375V25.0234H116.375ZM116.375 24.2266C116.375 21.8392 116.827 19.7496 117.705 17.9357L115.905 17.0643C114.877 19.1879 114.375 21.5827 114.375 24.2266H116.375ZM117.703 17.9387C118.599 16.1046 119.825 14.7022 121.378 13.6996L120.294 12.0192C118.41 13.2353 116.948 14.9266 115.906 17.0613L117.703 17.9387ZM121.38 13.6983C122.957 12.6756 124.644 12.1719 126.461 12.1719V10.1719C124.247 10.1719 122.184 10.7932 120.292 12.0204L121.38 13.6983ZM126.461 12.1719C129.516 12.1719 131.777 13.1651 133.383 15.0737L134.913 13.7857C132.864 11.3505 130 10.1719 126.461 10.1719V12.1719ZM133.383 15.0737C135.007 17.002 135.891 19.848 135.891 23.7578H137.891C137.891 19.5739 136.947 16.2011 134.913 13.7857L133.383 15.0737ZM135.891 23.7578V25.5625H137.891V23.7578H135.891ZM136.891 24.5625H119.711V26.5625H136.891V24.5625ZM118.711 25.5875C118.778 28.2753 119.566 30.5431 121.147 32.3014L122.634 30.9643C121.434 29.6287 120.768 27.8497 120.711 25.5375L118.711 25.5875ZM121.154 32.3092C122.758 34.0552 124.81 34.9297 127.234 34.9297V32.9297C125.346 32.9297 123.836 32.2729 122.627 30.9564L121.154 32.3092ZM127.234 34.9297C128.901 34.9297 130.383 34.589 131.632 33.8541L130.618 32.1303C129.742 32.6454 128.63 32.9297 127.234 32.9297V34.9297ZM131.632 33.8541C132.811 33.1609 133.835 32.2455 134.705 31.1193L133.123 29.8964C132.399 30.8326 131.564 31.5735 130.618 32.1303L131.632 33.8541ZM133.3 31.2968L135.948 33.3593L137.177 31.7813L134.528 29.7188L133.3 31.2968ZM135.724 32.0249C133.803 34.9777 130.948 36.4688 127 36.4688V38.4688C131.552 38.4688 135.072 36.6942 137.401 33.1157L135.724 32.0249ZM126.461 13.7344C124.433 13.7344 122.698 14.4906 121.321 15.9765L122.788 17.336C123.786 16.2594 124.989 15.7344 126.461 15.7344V13.7344ZM121.325 15.972C119.951 17.4368 119.158 19.4404 118.859 21.8785L120.844 22.1215C121.108 19.9659 121.783 18.407 122.784 17.3405L121.325 15.972ZM119.852 23H132.555V21H119.852V23ZM133.555 22V21.6719H131.555V22H133.555ZM133.553 21.6152C133.42 19.2711 132.781 17.325 131.523 15.9006L130.024 17.2244C130.891 18.2063 131.439 19.6664 131.556 21.7285L133.553 21.6152ZM131.527 15.9054C130.251 14.441 128.523 13.7344 126.461 13.7344V15.7344C128.024 15.7344 129.171 16.2465 130.02 17.2196L131.527 15.9054ZM154.141 17.3828L153.245 16.9384L153.242 16.9441L154.141 17.3828ZM158.219 12.7891L157.694 11.9377L157.691 11.9398L158.219 12.7891ZM172.562 14.7578L171.815 15.4222L171.818 15.4249L172.562 14.7578ZM174.344 31.2578L173.444 30.8221L173.442 30.8251L174.344 31.2578ZM170.289 35.8281L169.762 34.978L169.759 34.9801L170.289 35.8281ZM155.875 33.8828L155.128 34.5472L155.13 34.5499L155.875 33.8828ZM158.992 31.375L158.197 31.9808L158.2 31.9854L158.992 31.375ZM169.492 31.3516L170.29 31.9539L170.293 31.9504L169.492 31.3516ZM169.445 17.3359L168.648 17.9394L168.654 17.9474L169.445 17.3359ZM153.688 24.0859C153.688 21.7344 154.145 19.653 155.039 17.8215L153.242 16.9441C152.199 19.0813 151.688 21.4687 151.688 24.0859H153.688ZM155.036 17.8272C155.945 15.9947 157.184 14.61 158.747 13.6383L157.691 11.9398C155.785 13.1243 154.305 14.8021 153.245 16.9384L155.036 17.8272ZM158.743 13.6405C160.322 12.6679 162.129 12.1719 164.195 12.1719V10.1719C161.792 10.1719 159.616 10.754 157.694 11.9377L158.743 13.6405ZM164.195 12.1719C167.388 12.1719 169.896 13.2635 171.815 15.4222L173.31 14.0934C170.979 11.4709 167.908 10.1719 164.195 10.1719V12.1719ZM171.818 15.4249C173.757 17.5914 174.773 20.5135 174.773 24.2969H176.773C176.773 20.1427 175.649 16.7055 173.307 14.0907L171.818 15.4249ZM174.773 24.2969V24.6016H176.773V24.2969H174.773ZM174.773 24.6016C174.773 26.9389 174.323 29.0057 173.444 30.8221L175.244 31.6936C176.271 29.5724 176.773 27.2017 176.773 24.6016H174.773ZM173.442 30.8251C172.584 32.614 171.359 33.9892 169.762 34.978L170.816 36.6782C172.751 35.4795 174.229 33.8079 175.245 31.6905L173.442 30.8251ZM169.759 34.9801C168.184 35.9643 166.356 36.4688 164.242 36.4688V38.4688C166.69 38.4688 168.894 37.8795 170.819 36.6761L169.759 34.9801ZM164.242 36.4688C161.066 36.4688 158.556 35.3781 156.62 33.2157L155.13 34.5499C157.475 37.1688 160.543 38.4688 164.242 38.4688V36.4688ZM156.622 33.2184C154.695 31.0506 153.688 28.1422 153.688 24.3906H151.688C151.688 28.514 152.805 31.9337 155.128 34.5472L156.622 33.2184ZM153.688 24.3906V24.0859H151.688V24.3906H153.688ZM156.047 24.6016C156.047 27.5642 156.731 30.0559 158.197 31.9808L159.788 30.7692C158.66 29.2879 158.047 27.2639 158.047 24.6016H156.047ZM158.2 31.9854C159.706 33.9392 161.751 34.9297 164.242 34.9297V32.9297C162.359 32.9297 160.904 32.2171 159.784 30.7646L158.2 31.9854ZM164.242 34.9297C166.75 34.9297 168.799 33.9298 170.29 31.9539L168.694 30.7492C167.591 32.2108 166.14 32.9297 164.242 32.9297V34.9297ZM170.293 31.9504C171.765 29.9823 172.438 27.3203 172.438 24.0859H170.438C170.438 27.0703 169.813 29.2521 168.691 30.7527L170.293 31.9504ZM172.438 24.0859C172.438 21.1461 171.734 18.6622 170.237 16.7245L168.654 17.9474C169.813 19.4471 170.438 21.4633 170.438 24.0859H172.438ZM170.243 16.7325C168.74 14.7467 166.694 13.7344 164.195 13.7344V15.7344C166.072 15.7344 167.526 16.4565 168.648 17.9394L170.243 16.7325ZM164.195 13.7344C161.743 13.7344 159.724 14.7311 158.224 16.6786L159.808 17.8995C160.932 16.4407 162.366 15.7344 164.195 15.7344V13.7344ZM158.224 16.6786C156.726 18.6225 156.047 21.3096 156.047 24.6016H158.047C158.047 21.5498 158.681 19.3619 159.808 17.8995L158.224 16.6786ZM183.344 37H182.344V38H183.344V37ZM183.344 14.9922H184.344V13.9922H183.344V14.9922ZM179.336 14.9922H178.336V15.9922H179.336V14.9922ZM179.336 11.6406V10.6406H178.336V11.6406H179.336ZM183.344 11.6406V12.6406H184.344V11.6406H183.344ZM194.664 0.90625L195.662 0.972769L195.716 0.154447L194.925 -0.0592175L194.664 0.90625ZM194.43 4.42188L194.242 5.40403L195.352 5.6167L195.427 4.48839L194.43 4.42188ZM188.828 5.45312L189.556 6.13896L189.562 6.13198L188.828 5.45312ZM187.68 11.6406H186.68V12.6406H187.68V11.6406ZM193.094 11.6406H194.094V10.6406H193.094V11.6406ZM193.094 14.9922V15.9922H194.094V14.9922H193.094ZM187.68 14.9922V13.9922H186.68V14.9922H187.68ZM187.68 37V38H188.68V37H187.68ZM184.344 37V14.9922H182.344V37H184.344ZM183.344 13.9922H179.336V15.9922H183.344V13.9922ZM180.336 14.9922V11.6406H178.336V14.9922H180.336ZM179.336 12.6406H183.344V10.6406H179.336V12.6406ZM184.344 11.6406V9.03906H182.344V11.6406H184.344ZM184.344 9.03906C184.344 6.49813 185.019 4.67908 186.238 3.43392L184.809 2.03483C183.122 3.75842 182.344 6.1425 182.344 9.03906H184.344ZM186.238 3.43392C187.454 2.19154 189.221 1.50781 191.688 1.50781V-0.492188C188.841 -0.492188 186.499 0.308456 184.809 2.03483L186.238 3.43392ZM191.688 1.50781C192.598 1.50781 193.502 1.62856 194.404 1.87172L194.925 -0.0592175C193.857 -0.347311 192.777 -0.492188 191.688 -0.492188V1.50781ZM193.666 0.839731L193.432 4.35536L195.427 4.48839L195.662 0.972769L193.666 0.839731ZM194.618 3.43972C193.815 3.28604 192.971 3.21094 192.086 3.21094V5.21094C192.858 5.21094 193.575 5.27646 194.242 5.40403L194.618 3.43972ZM192.086 3.21094C190.475 3.21094 189.094 3.69293 188.094 4.77427L189.562 6.13198C190.094 5.55707 190.885 5.21094 192.086 5.21094V3.21094ZM188.1 4.76732C187.104 5.8251 186.68 7.27857 186.68 8.96875H188.68C188.68 7.59643 189.021 6.70615 189.556 6.13893L188.1 4.76732ZM186.68 8.96875V11.6406H188.68V8.96875H186.68ZM187.68 12.6406H193.094V10.6406H187.68V12.6406ZM192.094 11.6406V14.9922H194.094V11.6406H192.094ZM193.094 13.9922H187.68V15.9922H193.094V13.9922ZM186.68 14.9922V37H188.68V14.9922H186.68ZM187.68 36H183.344V38H187.68V36ZM229.328 28.0938L230.267 27.7502L230.027 27.0938H229.328V28.0938ZM215.031 28.0938V27.0938H214.329L214.091 27.7546L215.031 28.0938ZM211.82 37V38H212.523L212.761 37.3392L211.82 37ZM207.18 37L206.245 36.6433L205.727 38H207.18V37ZM220.211 2.875V1.875H219.522L219.277 2.51826L220.211 2.875ZM224.148 2.875L225.082 2.5177L224.837 1.875H224.148V2.875ZM237.203 37V38H238.656L238.137 36.6427L237.203 37ZM232.586 37L231.647 37.3435L231.887 38H232.586V37ZM216.391 24.3906L215.451 24.0497L214.964 25.3906H216.391V24.3906ZM227.992 24.3906V25.3906H229.421L228.932 24.0484L227.992 24.3906ZM222.18 8.42969L223.119 8.0875L222.178 5.50209L221.24 8.08872L222.18 8.42969ZM229.328 27.0938H215.031V29.0938H229.328V27.0938ZM214.091 27.7546L210.88 36.6608L212.761 37.3392L215.972 28.4329L214.091 27.7546ZM211.82 36H207.18V38H211.82V36ZM208.114 37.3567L221.145 3.23174L219.277 2.51826L206.245 36.6433L208.114 37.3567ZM220.211 3.875H224.148V1.875H220.211V3.875ZM223.214 3.2323L236.269 37.3573L238.137 36.6427L225.082 2.5177L223.214 3.2323ZM237.203 36H232.586V38H237.203V36ZM233.525 36.6565L230.267 27.7502L228.389 28.4373L231.647 37.3435L233.525 36.6565ZM216.391 25.3906H227.992V23.3906H216.391V25.3906ZM228.932 24.0484L223.119 8.0875L221.24 8.77187L227.053 24.7328L228.932 24.0484ZM221.24 8.08872L215.451 24.0497L217.331 24.7316L223.12 8.77065L221.24 8.08872ZM253.375 15.5312L253.211 16.5176L254.375 16.7117V15.5312H253.375ZM245.453 19L244.531 18.6133L244.453 18.7988V19H245.453ZM245.453 37V38H246.453V37H245.453ZM241.117 37H240.117V38H241.117V37ZM241.117 11.6406V10.6406H240.117V11.6406H241.117ZM245.336 11.6406L246.336 11.6166L246.312 10.6406H245.336V11.6406ZM245.406 14.5703L244.407 14.5943L244.486 17.9174L246.253 15.1019L245.406 14.5703ZM253.375 11.5H254.375V10.882L253.822 10.6056L253.375 11.5ZM253.539 14.5449C252.821 14.4252 252.055 14.3672 251.242 14.3672V16.3672C251.961 16.3672 252.616 16.4186 253.211 16.5176L253.539 14.5449ZM251.242 14.3672C249.679 14.3672 248.29 14.7008 247.131 15.4284C245.966 16.1595 245.106 17.2423 244.531 18.6133L246.375 19.3867C246.816 18.3358 247.429 17.6023 248.194 17.1224C248.964 16.639 249.962 16.3672 251.242 16.3672V14.3672ZM244.453 19V37H246.453V19H244.453ZM245.453 36H241.117V38H245.453V36ZM242.117 37V11.6406H240.117V37H242.117ZM241.117 12.6406H245.336V10.6406H241.117V12.6406ZM244.336 11.6646L244.407 14.5943L246.406 14.5463L246.336 11.6166L244.336 11.6646ZM246.253 15.1019C247.498 13.1188 249.198 12.1719 251.453 12.1719V10.1719C248.489 10.1719 246.158 11.4905 244.559 14.0387L246.253 15.1019ZM251.453 12.1719C252.239 12.1719 252.696 12.2784 252.928 12.3944L253.822 10.6056C253.179 10.2841 252.355 10.1719 251.453 10.1719V12.1719ZM252.375 11.5V15.5312H254.375V11.5H252.375ZM264.438 5.5H265.438V4.5H264.438V5.5ZM264.438 11.6406H263.438V12.6406H264.438V11.6406ZM269.172 11.6406H270.172V10.6406H269.172V11.6406ZM269.172 14.9922V15.9922H270.172V14.9922H269.172ZM264.438 14.9922V13.9922H263.438V14.9922H264.438ZM265.07 33.0156L264.296 33.6489L264.301 33.6547L264.306 33.6605L265.07 33.0156ZM269.289 33.4844H270.289V32.2474L269.08 32.5066L269.289 33.4844ZM269.289 37L269.553 37.9645L270.289 37.7629V37H269.289ZM260.102 14.9922H261.102V13.9922H260.102V14.9922ZM255.484 14.9922H254.484V15.9922H255.484V14.9922ZM255.484 11.6406V10.6406H254.484V11.6406H255.484ZM260.102 11.6406V12.6406H261.102V11.6406H260.102ZM260.102 5.5V4.5H259.102V5.5H260.102ZM263.438 5.5V11.6406H265.438V5.5H263.438ZM264.438 12.6406H269.172V10.6406H264.438V12.6406ZM268.172 11.6406V14.9922H270.172V11.6406H268.172ZM269.172 13.9922H264.438V15.9922H269.172V13.9922ZM263.438 14.9922V30.7188H265.438V14.9922H263.438ZM263.438 30.7188C263.438 31.8497 263.669 32.8819 264.296 33.6489L265.844 32.3824C265.628 32.1181 265.438 31.6191 265.438 30.7188H263.438ZM264.306 33.6605C265.003 34.486 266.079 34.7656 267.227 34.7656V32.7656C266.343 32.7656 265.982 32.5453 265.835 32.3708L264.306 33.6605ZM267.227 34.7656C267.831 34.7656 268.6 34.6548 269.499 34.4622L269.08 32.5066C268.229 32.6889 267.622 32.7656 267.227 32.7656V34.7656ZM268.289 33.4844V37H270.289V33.4844H268.289ZM269.025 36.0355C267.962 36.3267 266.942 36.4688 265.961 36.4688V38.4688C267.137 38.4688 268.335 38.2983 269.553 37.9645L269.025 36.0355ZM265.961 36.4688C264.234 36.4688 263.09 35.9555 262.344 35.0677L260.812 36.3541C262.035 37.8101 263.813 38.4688 265.961 38.4688V36.4688ZM262.344 35.0677C261.562 34.1374 261.102 32.7347 261.102 30.7188H259.102C259.102 33.0153 259.625 34.9407 260.812 36.3541L262.344 35.0677ZM261.102 30.7188V14.9922H259.102V30.7188H261.102ZM260.102 13.9922H255.484V15.9922H260.102V13.9922ZM256.484 14.9922V11.6406H254.484V14.9922H256.484ZM255.484 12.6406H260.102V10.6406H255.484V12.6406ZM261.102 11.6406V5.5H259.102V11.6406H261.102ZM260.102 6.5H264.438V4.5H260.102V6.5ZM275.008 32.8516L274.267 32.18L274.261 32.1865L274.255 32.1931L275.008 32.8516ZM279.039 32.8516L278.298 33.5231L278.304 33.5293L278.31 33.5355L279.039 32.8516ZM279.039 36.5312L278.32 35.8358L278.315 35.8419L278.309 35.8481L279.039 36.5312ZM275.008 36.5312L274.266 37.2015L274.272 37.208L274.278 37.2144L275.008 36.5312ZM275.352 34.7266C275.352 34.1854 275.503 33.8041 275.76 33.5101L274.255 32.1931C273.638 32.899 273.352 33.7677 273.352 34.7266H275.352ZM275.749 33.5231C275.957 33.2936 276.32 33.1016 277.023 33.1016V31.1016C275.946 31.1016 274.965 31.4095 274.267 32.18L275.749 33.5231ZM277.023 33.1016C277.727 33.1016 278.09 33.2936 278.298 33.5231L279.78 32.18C279.082 31.4095 278.101 31.1016 277.023 31.1016V33.1016ZM278.31 33.5355C278.587 33.832 278.742 34.2045 278.742 34.7266H280.742C280.742 33.7486 280.428 32.8712 279.769 32.1676L278.31 33.5355ZM278.742 34.7266C278.742 35.2047 278.596 35.5512 278.32 35.8358L279.758 37.2267C280.42 36.5426 280.742 35.6859 280.742 34.7266H278.742ZM278.309 35.8481C278.103 36.068 277.736 36.2578 277.023 36.2578V38.2578C278.092 38.2578 279.069 37.9632 279.769 37.2144L278.309 35.8481ZM277.023 36.2578C276.311 36.2578 275.944 36.068 275.738 35.8481L274.278 37.2144C274.978 37.9632 275.955 38.2578 277.023 38.2578V36.2578ZM275.75 35.861C275.496 35.5795 275.352 35.2248 275.352 34.7266H273.352C273.352 35.6659 273.645 36.5142 274.266 37.2015L275.75 35.861Z" fill="black"/>
</g>
<defs>
<filter id="filter0_d_0_1436" x="0.328125" y="0.507812" width="283.414" height="44.9609" filterUnits="userSpaceOnUse" color-interpolation-filters="sRGB">
<feFlood flood-opacity="0" result="BackgroundImageFix"/>
<feColorMatrix in="SourceAlpha" type="matrix" values="0 0 0 0 0 0 0 0 0 0 0 0 0 0 0 0 0 0 127 0" result="hardAlpha"/>
<feOffset dy="4"/>
<feGaussianBlur stdDeviation="2"/>
<feComposite in2="hardAlpha" operator="out"/>
<feColorMatrix type="matrix" values="0 0 0 0 0 0 0 0 0 0 0 0 0 0 0 0 0 0 0.25 0"/>
<feBlend mode="normal" in2="BackgroundImageFix" result="effect1_dropShadow_0_1436"/>
<feBlend mode="normal" in="SourceGraphic" in2="effect1_dropShadow_0_1436" result="shape"/>
</filter>
</defs>
</svg>
