<svg width="580" height="194" viewBox="0 0 580 194" fill="none" xmlns="http://www.w3.org/2000/svg">
<g filter="url(#filter0_d_66_2)">
<rect width="552" height="166" rx="40" fill="white"/>
</g>
<path d="M103.107 123L116.449 46.2188L140.391 46.2715C149.285 46.3066 155.965 48.1172 160.43 51.7031C164.895 55.2891 166.916 60.334 166.494 66.8379C166.002 74.6074 161.52 80.2852 153.047 83.8711C156.105 84.9258 158.479 86.9121 160.166 89.8301C161.854 92.7129 162.574 96.123 162.328 100.061C161.836 107.303 158.988 112.945 153.785 116.988C148.617 120.996 141.551 123 132.586 123H103.107ZM124.412 89.5664L120.773 110.291L132.955 110.344C136.752 110.344 139.934 109.412 142.5 107.549C145.066 105.65 146.596 103.102 147.088 99.9023C147.58 96.7383 147.141 94.2773 145.77 92.5195C144.434 90.7266 142.166 89.7598 138.967 89.6191L124.412 89.5664ZM126.311 78.3867L136.805 78.4922C140.707 78.4219 143.889 77.5078 146.35 75.75C148.846 73.9922 150.34 71.5488 150.832 68.4199C151.711 62.2324 148.459 59.1211 141.076 59.0859L129.686 59.0332L126.311 78.3867ZM185.268 123H170.291L180.205 65.9414H195.182L185.268 123ZM181.945 51.4395C181.875 49.084 182.648 47.1328 184.266 45.5859C185.883 44.0391 187.834 43.2656 190.119 43.2656C192.369 43.1953 194.32 43.8809 195.973 45.3223C197.625 46.7637 198.486 48.627 198.557 50.9121C198.627 53.0918 197.889 54.9902 196.342 56.6074C194.83 58.2246 192.844 59.0684 190.383 59.1387C188.168 59.209 186.217 58.541 184.529 57.1348C182.877 55.7285 182.016 53.8301 181.945 51.4395ZM226.242 64.834C231.551 64.9746 235.84 67.1016 239.109 71.2148L244.699 42H259.623L245.596 123H232.307L233.15 116.883C228.896 121.84 223.939 124.248 218.279 124.107C214.729 124.072 211.617 123.141 208.945 121.312C206.273 119.484 204.199 116.865 202.723 113.455C201.281 110.01 200.49 106.178 200.35 101.959C200.244 99.7441 200.297 97.5996 200.508 95.5254L200.824 93.1523C201.668 87.3164 203.285 82.1836 205.676 77.7539C208.102 73.3242 211.055 70.0371 214.535 67.8926C218.051 65.748 221.953 64.7285 226.242 64.834ZM215.432 95.5254C215.15 98.1973 215.062 100.447 215.168 102.275C215.52 108.463 218.016 111.609 222.656 111.715C226.84 111.891 230.479 109.922 233.572 105.809L237.633 83.1328C236.262 79.3711 233.52 77.4023 229.406 77.2266C225.785 77.1211 222.762 78.5273 220.336 81.4453C217.945 84.3281 216.311 89.0215 215.432 95.5254ZM335.139 100.061H297.539L288.996 123H285.885L314.625 46.2188H318.105L346.846 123H343.734L335.139 100.061ZM298.594 97.2129H334.084L316.365 49.6465L298.594 97.2129ZM382.916 67.998L379.225 67.6816C374.373 67.6816 370.312 69.2637 367.043 72.4277C363.773 75.5566 361.629 79.9512 360.609 85.6113V123H357.762V65.9414H360.609V77.8066C362.156 73.834 364.477 70.6875 367.57 68.3672C370.664 66.0469 374.549 64.8867 379.225 64.8867C380.877 64.8867 382.213 65.0801 383.232 65.4668L382.916 67.998ZM402.955 50.543V65.9414H415.928V68.8418H402.955V109.342C402.955 113.385 403.605 116.373 404.906 118.307C406.242 120.24 408.457 121.207 411.551 121.207C413.098 121.207 414.979 121.049 417.193 120.732L417.668 123.422C416.508 123.844 414.521 124.055 411.709 124.055C407.561 124.055 404.59 122.912 402.797 120.627C401.004 118.307 400.09 114.668 400.055 109.711V68.8418H389.508V65.9414H400.055V50.543H402.955ZM429.428 120.416C429.428 119.607 429.709 118.922 430.271 118.359C430.834 117.762 431.52 117.463 432.328 117.463C433.137 117.463 433.822 117.762 434.385 118.359C434.982 118.922 435.281 119.607 435.281 120.416C435.281 121.225 434.982 121.91 434.385 122.473C433.822 123.035 433.137 123.316 432.328 123.316C431.52 123.316 430.834 123.035 430.271 122.473C429.709 121.91 429.428 121.225 429.428 120.416Z" fill="black"/>
<defs>
<filter id="filter0_d_66_2" x="0" y="0" width="580" height="194" filterUnits="userSpaceOnUse" color-interpolation-filters="sRGB">
<feFlood flood-opacity="0" result="BackgroundImageFix"/>
<feColorMatrix in="SourceAlpha" type="matrix" values="0 0 0 0 0 0 0 0 0 0 0 0 0 0 0 0 0 0 127 0" result="hardAlpha"/>
<feOffset dx="14" dy="14"/>
<feGaussianBlur stdDeviation="7"/>
<feComposite in2="hardAlpha" operator="out"/>
<feColorMatrix type="matrix" values="0 0 0 0 0 0 0 0 0 0 0 0 0 0 0 0 0 0 0.25 0"/>
<feBlend mode="normal" in2="BackgroundImageFix" result="effect1_dropShadow_66_2"/>
<feBlend mode="normal" in="SourceGraphic" in2="effect1_dropShadow_66_2" result="shape"/>
</filter>
</defs>
</svg>
