<svg width="70" height="70" viewBox="0 0 70 70" fill="none" xmlns="http://www.w3.org/2000/svg">
<g filter="url(#filter0_d_0_597)">
<circle cx="35" cy="31" r="25" fill="white"/>
<circle cx="35" cy="31" r="24.5" stroke="black"/>
</g>
<path d="M35 22.0715C33.8963 22.0715 32.8174 22.3988 31.8998 23.0119C30.9821 23.6251 30.2668 24.4967 29.8445 25.5163C29.4221 26.536 29.3116 27.658 29.5269 28.7405C29.7422 29.823 30.2737 30.8173 31.0541 31.5978C31.8346 32.3782 32.8289 32.9097 33.9114 33.125C34.9938 33.3403 36.1159 33.2298 37.1356 32.8074C38.1552 32.3851 39.0268 31.6698 39.6399 30.7521C40.2531 29.8344 40.5804 28.7555 40.5804 27.6518C40.5804 26.1718 39.9925 24.7525 38.9459 23.7059C37.8994 22.6594 36.48 22.0715 35 22.0715ZM35 31.0001C34.3378 31.0001 33.6905 30.8037 33.1399 30.4358C32.5893 30.0679 32.1601 29.545 31.9067 28.9332C31.6533 28.3213 31.587 27.6481 31.7162 26.9986C31.8454 26.3492 32.1642 25.7526 32.6325 25.2843C33.1007 24.816 33.6973 24.4972 34.3468 24.368C34.9963 24.2388 35.6695 24.3051 36.2813 24.5585C36.8932 24.8119 37.4161 25.2411 37.784 25.7917C38.1519 26.3423 38.3483 26.9896 38.3483 27.6518C38.3474 28.5396 37.9943 29.3907 37.3666 30.0184C36.7389 30.6461 35.8878 30.9992 35 31.0001Z" fill="black"/>
<path d="M35 15.3751C31.9097 15.3751 28.8887 16.2915 26.3192 18.0084C23.7497 19.7253 21.747 22.1656 20.5644 25.0207C19.3818 27.8758 19.0723 31.0174 19.6752 34.0484C20.2781 37.0793 21.7663 39.8635 23.9515 42.0487C26.1367 44.2338 28.9208 45.722 31.9517 46.3249C34.9827 46.9278 38.1243 46.6183 40.9794 45.4357C43.8345 44.2531 46.2748 42.2504 47.9917 39.6809C49.7086 37.1114 50.625 34.0904 50.625 31.0001C50.6203 26.8576 48.9726 22.886 46.0433 19.9568C43.1141 17.0276 39.1426 15.3798 35 15.3751ZM28.3036 42.5816V41.0448C28.3045 40.157 28.6575 39.3059 29.2852 38.6782C29.9129 38.0505 30.7641 37.6974 31.6518 37.6965H38.3482C39.2359 37.6974 40.0871 38.0505 40.7148 38.6782C41.3425 39.3059 41.6955 40.157 41.6964 41.0448V42.5816C39.6643 43.7682 37.3533 44.3935 35 44.3935C32.6468 44.3935 30.3358 43.7682 28.3036 42.5816ZM43.9196 40.9622C43.8974 39.4982 43.301 38.1017 42.2588 37.0733C41.2167 36.045 39.8123 35.4672 38.3482 35.4644H31.6518C30.1877 35.4672 28.7833 36.045 27.7412 37.0733C26.699 38.1017 26.1026 39.4982 26.0804 40.9622C24.0564 39.155 22.6292 36.7756 21.9875 34.1392C21.3459 31.5028 21.5202 28.7337 22.4873 26.1986C23.4544 23.6635 25.1688 21.4819 27.4033 19.9427C29.6379 18.4035 32.2872 17.5794 35.0006 17.5794C37.7139 17.5794 40.3633 18.4035 42.5978 19.9427C44.8323 21.4819 46.5467 23.6635 47.5138 26.1986C48.4809 28.7337 48.6552 31.5028 48.0136 34.1392C47.372 36.7756 45.9447 39.155 43.9208 40.9622H43.9196Z" fill="black"/>
<defs>
<filter id="filter0_d_0_597" x="0" y="0" width="70" height="70" filterUnits="userSpaceOnUse" color-interpolation-filters="sRGB">
<feFlood flood-opacity="0" result="BackgroundImageFix"/>
<feColorMatrix in="SourceAlpha" type="matrix" values="0 0 0 0 0 0 0 0 0 0 0 0 0 0 0 0 0 0 127 0" result="hardAlpha"/>
<feOffset dy="4"/>
<feGaussianBlur stdDeviation="5"/>
<feComposite in2="hardAlpha" operator="out"/>
<feColorMatrix type="matrix" values="0 0 0 0 0 0 0 0 0 0 0 0 0 0 0 0 0 0 0.25 0"/>
<feBlend mode="normal" in2="BackgroundImageFix" result="effect1_dropShadow_0_597"/>
<feBlend mode="normal" in="SourceGraphic" in2="effect1_dropShadow_0_597" result="shape"/>
</filter>
</defs>
</svg>
