<svg width="1728" height="2025" viewBox="0 0 1728 2025" fill="none" xmlns="http://www.w3.org/2000/svg">
<path opacity="0.0416667" d="M1689.83 1592.3C1559.71 1651.96 1210.96 1715.63 856.976 1493.02C502.991 1270.4 236.019 1358.28 146.782 1430.05" stroke="black"/>
<path opacity="0.0833333" d="M1685.3 1605.83C1557.81 1666.39 1211.9 1732.49 848.237 1512.37C484.577 1292.26 221.486 1381.98 135.399 1454.36" stroke="black"/>
<path opacity="0.125" d="M1680.74 1619.4C1555.91 1680.84 1212.95 1749.33 839.721 1531.79C466.496 1314.24 207.368 1405.79 124.456 1478.75" stroke="black"/>
<path opacity="0.166667" d="M1676.15 1633C1554.03 1695.3 1214.11 1766.17 831.431 1551.26C448.755 1336.35 193.667 1429.68 113.957 1503.22" stroke="black"/>
<path opacity="0.208333" d="M1671.54 1646.63C1552.15 1709.77 1215.38 1783 823.369 1570.79C431.359 1358.58 180.388 1453.68 103.905 1527.75" stroke="black"/>
<path opacity="0.25" d="M1666.89 1660.29C1550.28 1724.25 1216.76 1799.82 815.537 1590.37C414.312 1380.92 167.536 1477.76 94.3019 1552.36" stroke="black"/>
<path opacity="0.291667" d="M1662.22 1673.98C1548.42 1738.75 1218.26 1816.63 807.938 1610.01C397.621 1403.39 155.115 1501.93 85.1516 1577.03" stroke="black"/>
<path opacity="0.333333" d="M1657.52 1687.71C1546.57 1753.26 1219.86 1833.43 800.575 1629.7C381.289 1425.97 143.127 1526.19 76.4568 1601.76" stroke="black"/>
<path opacity="0.375" d="M1652.8 1701.47C1544.73 1767.78 1221.57 1850.22 793.449 1649.44C365.323 1448.67 131.577 1550.53 68.2198 1626.56" stroke="black"/>
<path opacity="0.416667" d="M1648.05 1715.26C1542.9 1782.32 1223.4 1867 786.562 1669.23C349.727 1471.47 120.469 1574.95 60.4436 1651.4" stroke="black"/>
<path opacity="0.458333" d="M1643.29 1729.09C1541.09 1796.87 1225.33 1883.76 779.918 1689.07C334.506 1494.38 109.805 1599.44 53.1304 1676.3" stroke="black"/>
<path opacity="0.5" d="M1638.51 1742.95C1539.28 1811.43 1227.37 1900.51 773.516 1708.95C319.664 1517.4 99.5883 1624.01 46.282 1701.25" stroke="black"/>
<path opacity="0.541667" d="M1633.71 1756.84C1537.49 1826.01 1229.52 1917.24 767.361 1728.88C305.206 1540.52 89.8232 1648.64 39.901 1726.25" stroke="black"/>
<path opacity="0.583333" d="M1628.89 1770.77C1535.71 1840.59 1231.77 1933.96 761.453 1748.85C291.137 1563.74 80.5119 1673.35 33.989 1751.29" stroke="black"/>
<path opacity="0.625" d="M1624.05 1784.73C1533.94 1855.19 1234.13 1950.66 755.795 1768.86C277.46 1587.05 71.6577 1698.11 28.5484 1776.37" stroke="black"/>
<path opacity="0.666667" d="M1619.21 1798.72C1532.19 1869.8 1236.6 1967.35 750.388 1788.91C264.18 1610.46 63.2627 1722.94 23.58 1801.48" stroke="black"/>
<path opacity="0.708333" d="M1614.35 1812.75C1530.45 1884.42 1239.17 1984.02 745.234 1808.99C251.301 1633.96 55.3299 1747.82 19.086 1826.63" stroke="black"/>
<path opacity="0.75" d="M1609.48 1826.81C1528.73 1899.06 1241.84 2000.67 740.334 1829.11C238.827 1657.55 47.8617 1772.76 15.0676 1851.81" stroke="black"/>
<path opacity="0.791667" d="M1604.61 1840.91C1527.02 1913.71 1244.62 2017.3 735.689 1849.26C226.761 1681.22 40.8597 1797.74 11.5254 1877.01" stroke="black"/>
<path opacity="0.833333" d="M1599.72 1855.04C1525.33 1928.37 1247.5 2033.91 731.302 1869.44C215.107 1704.98 34.3271 1822.78 8.46148 1902.24" stroke="black"/>
<path opacity="0.875" d="M1594.83 1869.2C1523.66 1943.04 1250.48 2050.5 727.174 1889.66C203.869 1728.82 28.2653 1847.86 5.87626 1927.48" stroke="black"/>
<path opacity="0.916667" d="M1589.94 1883.4C1522 1957.72 1253.56 2067.07 723.305 1909.9C193.051 1752.73 22.6761 1872.98 3.7705 1952.75" stroke="black"/>
<path opacity="0.958333" d="M1585.04 1897.63C1520.36 1972.41 1256.74 2083.62 719.697 1930.17C182.655 1776.72 17.5614 1898.13 2.14505 1978.02" stroke="black"/>
<path d="M1580.14 1911.9C1518.74 1987.12 1260.02 2100.15 716.352 1950.46C172.684 1800.77 12.9224 1923.32 0.999845 2003.31" stroke="black"/>
<circle opacity="0.87" cx="1287.52" cy="1889.69" r="26.725" transform="rotate(-162 1287.52 1889.69)" stroke="black"/>
<circle cx="1022.02" cy="1866.23" r="30.025" transform="rotate(57 1022.02 1866.23)" stroke="black"/>
<circle opacity="0.9" cx="441.944" cy="1916.88" r="16.55" transform="rotate(75 441.944 1916.88)" stroke="black"/>
<circle opacity="0.78" cx="1126.96" cy="1620.95" r="29.475" transform="rotate(41 1126.96 1620.95)" stroke="black"/>
<circle opacity="0.98" cx="733.728" cy="1674.56" r="26.725" transform="rotate(70 733.728 1674.56)" stroke="black"/>
<circle opacity="0.94" cx="484.228" cy="1518.64" r="20.95" transform="rotate(-162 484.228 1518.64)" stroke="black"/>
<circle opacity="0.79" cx="1352.68" cy="1085.91" r="30.025" transform="rotate(86 1352.68 1085.91)" stroke="black"/>
<circle opacity="0.97" cx="1101.29" cy="1138.71" r="22.6" transform="rotate(-138 1101.29 1138.71)" stroke="black"/>
<circle opacity="0.86" cx="245.033" cy="1025.66" r="29.75" transform="rotate(-104 245.033 1025.66)" stroke="black"/>
<path opacity="0.96" d="M1219.6 1828.58L1250.55 1830.74L1233.2 1856.47L1219.6 1828.58Z" stroke="black"/>
<path opacity="0.79" d="M781.505 1965.14L781.505 1939.18L803.99 1952.16L781.505 1965.14Z" stroke="black"/>
<path opacity="0.95" d="M675.295 1721.21L658.562 1737.37L652.934 1714.8L675.295 1721.21Z" stroke="black"/>
<path opacity="0.88" d="M221.504 1899L199.638 1872L233.955 1866.57L221.504 1899Z" stroke="black"/>
<path opacity="0.98" d="M1215.8 1699.14L1236.4 1689.09L1234.8 1711.96L1215.8 1699.14Z" stroke="black"/>
<path opacity="0.9" d="M954.012 1533.6L953.447 1565.98L925.691 1549.3L954.012 1533.6Z" stroke="black"/>
<path opacity="0.78" d="M686.946 1543.78L674.464 1526.6L695.583 1524.38L686.946 1543.78Z" stroke="black"/>
<path opacity="0.84" d="M267.057 1662.3L253.479 1676.36L248.091 1657.57L267.057 1662.3Z" stroke="black"/>
<path opacity="0.98" d="M1442.64 1533.61L1464.99 1542.17L1446.4 1557.25L1442.64 1533.61Z" stroke="black"/>
<path opacity="0.86" d="M762.249 1240.66L777.422 1224.39L783.927 1245.67L762.249 1240.66Z" stroke="black"/>
<path opacity="0.73" d="M414.754 1430.16L427.434 1412.71L436.208 1432.41L414.754 1430.16Z" stroke="black"/>
<path opacity="0.99" d="M190.58 1395.91L212.658 1417.23L183.155 1425.69L190.58 1395.91Z" stroke="black"/>
<path opacity="0.86" d="M1070.77 1169.62L1094.93 1195.53L1060.42 1203.49L1070.77 1169.62Z" stroke="black"/>
<path opacity="0.97" d="M923.308 1017.4L945.879 1042.47L912.884 1049.48L923.308 1017.4Z" stroke="black"/>
<path opacity="0.77" d="M545.169 1196.63L559.323 1231.67L521.906 1226.41L545.169 1196.63Z" stroke="black"/>
<path opacity="0.77" d="M166.773 1082.62L190.93 1108.53L156.417 1116.49L166.773 1082.62Z" stroke="black"/>
<path opacity="0.0416667" d="M38.1703 432.703C168.295 373.039 517.039 309.366 871.024 531.981C1225.01 754.596 1491.98 666.718 1581.22 594.951" stroke="black"/>
<path opacity="0.0833333" d="M42.697 419.168C170.194 358.607 516.103 292.513 879.763 512.627C1243.42 732.742 1506.51 643.016 1592.6 570.638" stroke="black"/>
<path opacity="0.125" d="M47.2557 405.602C172.086 344.162 515.054 275.667 888.279 493.213C1261.5 710.76 1520.63 619.214 1603.54 546.248" stroke="black"/>
<path opacity="0.166667" d="M51.845 392.005C173.971 329.703 513.893 258.829 896.569 473.741C1279.25 688.653 1534.33 595.315 1614.04 521.783" stroke="black"/>
<path opacity="0.208333" d="M56.4637 378.375C175.849 315.232 512.621 241.999 904.631 454.211C1296.64 666.424 1547.61 571.323 1624.1 497.245" stroke="black"/>
<path opacity="0.25" d="M61.1101 364.712C177.717 300.747 511.238 225.178 912.463 434.627C1313.69 644.075 1560.46 547.239 1633.7 472.64" stroke="black"/>
<path opacity="0.291667" d="M65.783 351.018C179.577 286.25 509.744 208.368 920.062 414.988C1330.38 621.608 1572.89 523.067 1642.85 447.969" stroke="black"/>
<path opacity="0.333333" d="M70.4809 337.291C181.427 271.739 508.14 191.568 927.425 395.297C1346.71 599.026 1584.87 498.81 1651.54 423.236" stroke="black"/>
<path opacity="0.375" d="M75.2023 323.53C183.266 257.215 506.426 174.78 934.551 375.556C1362.68 576.332 1596.42 474.471 1659.78 398.444" stroke="black"/>
<path opacity="0.416667" d="M79.9459 309.737C185.095 242.679 504.603 158.004 941.438 355.766C1378.27 553.527 1607.53 450.053 1667.56 373.596" stroke="black"/>
<path opacity="0.458333" d="M84.7102 295.911C186.913 228.131 502.671 141.242 948.082 335.929C1393.49 530.616 1618.2 425.56 1674.87 348.696" stroke="black"/>
<path opacity="0.5" d="M89.4937 282.051C188.719 213.569 500.631 124.493 954.484 316.046C1408.34 507.599 1628.41 400.993 1681.72 323.746" stroke="black"/>
<path opacity="0.541667" d="M94.295 268.158C190.512 198.995 498.484 107.758 960.639 296.119C1422.79 484.48 1638.18 376.357 1688.1 298.75" stroke="black"/>
<path opacity="0.583333" d="M99.1126 254.232C192.292 184.409 496.23 91.0395 966.547 276.151C1436.86 461.262 1647.49 351.654 1694.01 273.711" stroke="black"/>
<path opacity="0.625" d="M103.945 240.272C194.059 169.81 493.869 74.3367 972.205 256.142C1450.54 437.948 1656.34 326.888 1699.45 248.633" stroke="black"/>
<path opacity="0.666667" d="M108.791 226.278C195.811 155.198 491.404 57.6505 977.612 236.095C1463.82 414.539 1664.74 302.062 1704.42 223.518" stroke="black"/>
<path opacity="0.708333" d="M113.649 212.25C197.549 140.575 488.834 40.9821 982.766 216.011C1476.7 391.039 1672.67 277.179 1708.91 198.371" stroke="black"/>
<path opacity="0.75" d="M118.517 198.189C199.272 125.94 486.159 24.332 987.666 195.891C1489.17 367.451 1680.14 252.243 1712.93 173.193" stroke="black"/>
<path opacity="0.791667" d="M123.394 184.093C200.979 111.292 483.382 7.70058 992.311 175.739C1501.24 343.777 1687.14 227.255 1716.47 147.99" stroke="black"/>
<path opacity="0.833333" d="M128.278 169.964C202.67 96.6334 480.503 -8.91085 996.698 155.555C1512.89 320.021 1693.67 202.221 1719.54 122.763" stroke="black"/>
<path opacity="0.875" d="M133.169 155.8C204.345 81.9626 477.522 -25.5019 1000.83 135.341C1524.13 296.185 1699.73 177.143 1722.12 97.5169" stroke="black"/>
<path opacity="0.916667" d="M138.064 141.603C206.002 67.2802 474.441 -42.0717 1004.7 115.1C1534.95 272.272 1705.32 152.024 1724.23 72.2544" stroke="black"/>
<path opacity="0.958333" d="M142.962 127.371C207.641 52.586 471.26 -58.62 1008.3 94.8323C1545.35 248.285 1710.44 126.868 1725.85 46.9786" stroke="black"/>
<path d="M147.861 113.105C209.262 37.8808 467.981 -75.1456 1011.65 74.5406C1555.32 224.227 1715.08 101.678 1727 21.6933" stroke="black"/>
<circle opacity="0.87" cx="440.48" cy="135.306" r="26.725" transform="rotate(18 440.48 135.306)" stroke="black"/>
<circle cx="705.975" cy="158.775" r="30.025" transform="rotate(-123 705.975 158.775)" stroke="black"/>
<circle opacity="0.9" cx="1286.06" cy="108.118" r="16.55" transform="rotate(-105 1286.06 108.118)" stroke="black"/>
<circle opacity="0.78" cx="601.043" cy="404.046" r="29.475" transform="rotate(-139 601.043 404.046)" stroke="black"/>
<circle opacity="0.98" cx="994.272" cy="350.439" r="26.725" transform="rotate(-110 994.272 350.439)" stroke="black"/>
<circle opacity="0.94" cx="1243.77" cy="506.362" r="20.95" transform="rotate(18 1243.77 506.362)" stroke="black"/>
<circle opacity="0.79" cx="375.321" cy="939.087" r="30.025" transform="rotate(-94 375.321 939.087)" stroke="black"/>
<circle opacity="0.97" cx="626.71" cy="886.291" r="22.6" transform="rotate(42 626.71 886.291)" stroke="black"/>
<circle opacity="0.86" cx="1482.97" cy="999.337" r="29.75" transform="rotate(76 1482.97 999.337)" stroke="black"/>
<path opacity="0.96" d="M508.404 196.421L477.45 194.256L494.801 168.532L508.404 196.421Z" stroke="black"/>
<path opacity="0.79" d="M946.495 59.8611L946.495 85.8245L924.01 72.8428L946.495 59.8611Z" stroke="black"/>
<path opacity="0.95" d="M1052.71 303.793L1069.44 287.634L1075.07 310.205L1052.71 303.793Z" stroke="black"/>
<path opacity="0.88" d="M1506.5 125.997L1528.36 152.998L1494.04 158.434L1506.5 125.997Z" stroke="black"/>
<path opacity="0.98" d="M512.204 325.857L491.601 335.906L493.2 313.039L512.204 325.857Z" stroke="black"/>
<path opacity="0.9" d="M773.988 491.397L774.553 459.022L802.309 475.699L773.988 491.397Z" stroke="black"/>
<path opacity="0.78" d="M1041.05 481.223L1053.54 498.402L1032.42 500.622L1041.05 481.223Z" stroke="black"/>
<path opacity="0.84" d="M1460.94 362.698L1474.52 348.638L1479.91 367.427L1460.94 362.698Z" stroke="black"/>
<path opacity="0.98" d="M285.365 491.394L263.012 482.831L281.604 467.755L285.365 491.394Z" stroke="black"/>
<path opacity="0.86" d="M965.751 784.335L950.578 800.606L944.073 779.33L965.751 784.335Z" stroke="black"/>
<path opacity="0.73" d="M1313.25 594.842L1300.57 612.294L1291.79 592.587L1313.25 594.842Z" stroke="black"/>
<path opacity="0.99" d="M1537.42 629.094L1515.34 607.773L1544.84 599.313L1537.42 629.094Z" stroke="black"/>
<path opacity="0.86" d="M657.227 855.38L633.07 829.475L667.583 821.507L657.227 855.38Z" stroke="black"/>
<path opacity="0.97" d="M804.692 1007.6L782.121 982.531L815.116 975.518L804.692 1007.6Z" stroke="black"/>
<path opacity="0.77" d="M1182.83 828.366L1168.68 793.333L1206.09 798.591L1182.83 828.366Z" stroke="black"/>
<path opacity="0.77" d="M1561.23 942.38L1537.07 916.475L1571.58 908.507L1561.23 942.38Z" stroke="black"/>
</svg>
