<svg width="1728" height="2025" viewBox="0 0 1728 2025" fill="none" xmlns="http://www.w3.org/2000/svg">
<path opacity="0.0416667" d="M1689.83 1592.3C1559.71 1651.96 1210.96 1715.63 856.978 1493.02C502.993 1270.4 236.021 1358.28 146.784 1430.05" stroke="black"/>
<path opacity="0.0833333" d="M1685.3 1605.83C1557.81 1666.39 1211.9 1732.49 848.239 1512.37C484.578 1292.26 221.488 1381.98 135.401 1454.36" stroke="black"/>
<path opacity="0.125" d="M1680.75 1619.4C1555.92 1680.84 1212.95 1749.33 839.723 1531.79C466.498 1314.24 207.37 1405.79 124.458 1478.75" stroke="black"/>
<path opacity="0.166667" d="M1676.16 1633C1554.03 1695.3 1214.11 1766.17 831.433 1551.26C448.757 1336.35 193.669 1429.68 113.959 1503.22" stroke="black"/>
<path opacity="0.208333" d="M1671.54 1646.63C1552.15 1709.77 1215.38 1783 823.371 1570.79C431.36 1358.58 180.39 1453.68 103.907 1527.75" stroke="black"/>
<path opacity="0.25" d="M1666.89 1660.29C1550.28 1724.25 1216.76 1799.82 815.539 1590.37C414.314 1380.93 167.538 1477.76 94.3038 1552.36" stroke="black"/>
<path opacity="0.291667" d="M1662.22 1673.98C1548.43 1738.75 1218.26 1816.63 807.94 1610.01C397.623 1403.39 155.117 1501.93 85.1536 1577.03" stroke="black"/>
<path opacity="0.333333" d="M1657.52 1687.71C1546.58 1753.26 1219.86 1833.43 800.577 1629.7C381.291 1425.97 143.129 1526.19 76.4588 1601.76" stroke="black"/>
<path opacity="0.375" d="M1652.8 1701.47C1544.74 1767.78 1221.58 1850.22 793.451 1649.44C365.325 1448.67 131.579 1550.53 68.2218 1626.56" stroke="black"/>
<path opacity="0.416667" d="M1648.06 1715.26C1542.91 1782.32 1223.4 1867 786.564 1669.23C349.729 1471.47 120.471 1574.95 60.4455 1651.4" stroke="black"/>
<path opacity="0.458333" d="M1643.29 1729.09C1541.09 1796.87 1225.33 1883.76 779.92 1689.07C334.508 1494.38 109.807 1599.44 53.1324 1676.3" stroke="black"/>
<path opacity="0.5" d="M1638.51 1742.95C1539.28 1811.43 1227.37 1900.51 773.518 1708.95C319.666 1517.4 99.5903 1624.01 46.2839 1701.25" stroke="black"/>
<path opacity="0.541667" d="M1633.71 1756.84C1537.49 1826.01 1229.52 1917.24 767.363 1728.88C305.208 1540.52 89.8252 1648.64 39.9029 1726.25" stroke="black"/>
<path opacity="0.583333" d="M1628.89 1770.77C1535.71 1840.59 1231.77 1933.96 761.455 1748.85C291.139 1563.74 80.5138 1673.35 33.9909 1751.29" stroke="black"/>
<path opacity="0.625" d="M1624.06 1784.73C1533.94 1855.19 1234.13 1950.66 755.797 1768.86C277.462 1587.05 71.6596 1698.11 28.5503 1776.37" stroke="black"/>
<path opacity="0.666667" d="M1619.21 1798.72C1532.19 1869.8 1236.6 1967.35 750.39 1788.91C264.182 1610.46 63.2646 1722.94 23.582 1801.48" stroke="black"/>
<path opacity="0.708333" d="M1614.35 1812.75C1530.45 1884.42 1239.17 1984.02 745.236 1808.99C251.303 1633.96 55.3318 1747.82 19.0879 1826.63" stroke="black"/>
<path opacity="0.75" d="M1609.49 1826.81C1528.73 1899.06 1241.84 2000.67 740.336 1829.11C238.829 1657.55 47.8636 1772.76 15.0695 1851.81" stroke="black"/>
<path opacity="0.791667" d="M1604.61 1840.91C1527.02 1913.71 1244.62 2017.3 735.691 1849.26C226.762 1681.22 40.8617 1797.74 11.5274 1877.01" stroke="black"/>
<path opacity="0.833333" d="M1599.72 1855.04C1525.33 1928.37 1247.5 2033.91 731.304 1869.45C215.109 1704.98 34.329 1822.78 8.46343 1902.24" stroke="black"/>
<path opacity="0.875" d="M1594.83 1869.2C1523.66 1943.04 1250.48 2050.5 727.176 1889.66C203.871 1728.82 28.2672 1847.86 5.87821 1927.48" stroke="black"/>
<path opacity="0.916667" d="M1589.94 1883.4C1522 1957.72 1253.56 2067.07 723.307 1909.9C193.053 1752.73 22.678 1872.98 3.77245 1952.75" stroke="black"/>
<path opacity="0.958333" d="M1585.04 1897.63C1520.36 1972.41 1256.74 2083.62 719.699 1930.17C182.657 1776.72 17.5634 1898.13 2.147 1978.02" stroke="black"/>
<path d="M1580.14 1911.9C1518.74 1987.12 1260.02 2100.15 716.353 1950.46C172.686 1800.77 12.9243 1923.32 1.0018 2003.31" stroke="black"/>
<circle opacity="0.87" cx="1287.52" cy="1889.69" r="26.725" transform="rotate(-162 1287.52 1889.69)" stroke="black"/>
<circle cx="1022.03" cy="1866.23" r="30.025" transform="rotate(57 1022.03 1866.23)" stroke="black"/>
<circle opacity="0.9" cx="441.946" cy="1916.88" r="16.55" transform="rotate(75 441.946 1916.88)" stroke="black"/>
<circle opacity="0.78" cx="1126.96" cy="1620.95" r="29.475" transform="rotate(41 1126.96 1620.95)" stroke="black"/>
<circle opacity="0.98" cx="733.731" cy="1674.56" r="26.725" transform="rotate(70 733.731 1674.56)" stroke="black"/>
<circle opacity="0.94" cx="484.23" cy="1518.64" r="20.95" transform="rotate(-162 484.23 1518.64)" stroke="black"/>
<circle opacity="0.79" cx="1352.68" cy="1085.91" r="30.025" transform="rotate(86 1352.68 1085.91)" stroke="black"/>
<circle opacity="0.97" cx="1101.29" cy="1138.71" r="22.6" transform="rotate(-138 1101.29 1138.71)" stroke="black"/>
<circle opacity="0.86" cx="245.035" cy="1025.66" r="29.75" transform="rotate(-104 245.035 1025.66)" stroke="black"/>
<path opacity="0.96" d="M1219.6 1828.58L1250.55 1830.74L1233.2 1856.47L1219.6 1828.58Z" stroke="black"/>
<path opacity="0.79" d="M781.507 1965.14L781.507 1939.18L803.992 1952.16L781.507 1965.14Z" stroke="black"/>
<path opacity="0.95" d="M675.296 1721.21L658.564 1737.37L652.936 1714.8L675.296 1721.21Z" stroke="black"/>
<path opacity="0.88" d="M221.506 1899L199.64 1872L233.957 1866.57L221.506 1899Z" stroke="black"/>
<path opacity="0.98" d="M1215.8 1699.14L1236.4 1689.09L1234.8 1711.96L1215.8 1699.14Z" stroke="black"/>
<path opacity="0.9" d="M954.014 1533.6L953.449 1565.98L925.693 1549.3L954.014 1533.6Z" stroke="black"/>
<path opacity="0.78" d="M686.947 1543.78L674.466 1526.6L695.584 1524.38L686.947 1543.78Z" stroke="black"/>
<path opacity="0.84" d="M267.059 1662.3L253.481 1676.36L248.094 1657.57L267.059 1662.3Z" stroke="black"/>
<path opacity="0.98" d="M1442.64 1533.61L1464.99 1542.17L1446.4 1557.25L1442.64 1533.61Z" stroke="black"/>
<path opacity="0.86" d="M762.251 1240.66L777.424 1224.39L783.929 1245.67L762.251 1240.66Z" stroke="black"/>
<path opacity="0.73" d="M414.756 1430.16L427.436 1412.71L436.211 1432.41L414.756 1430.16Z" stroke="black"/>
<path opacity="0.99" d="M190.582 1395.91L212.66 1417.23L183.157 1425.69L190.582 1395.91Z" stroke="black"/>
<path opacity="0.86" d="M1070.77 1169.62L1094.93 1195.52L1060.42 1203.49L1070.77 1169.62Z" stroke="black"/>
<path opacity="0.97" d="M923.31 1017.4L945.881 1042.47L912.886 1049.48L923.31 1017.4Z" stroke="black"/>
<path opacity="0.77" d="M545.17 1196.63L559.325 1231.67L521.908 1226.41L545.17 1196.63Z" stroke="black"/>
<path opacity="0.77" d="M166.775 1082.62L190.932 1108.52L156.419 1116.49L166.775 1082.62Z" stroke="black"/>
<path opacity="0.0416667" d="M38.1703 432.703C168.295 373.039 517.039 309.366 871.024 531.981C1225.01 754.596 1491.98 666.718 1581.22 594.951" stroke="black"/>
<path opacity="0.0833333" d="M42.697 419.168C170.194 358.607 516.103 292.513 879.763 512.627C1243.42 732.742 1506.51 643.016 1592.6 570.638" stroke="black"/>
<path opacity="0.125" d="M47.2557 405.602C172.086 344.162 515.054 275.667 888.279 493.213C1261.5 710.76 1520.63 619.214 1603.54 546.248" stroke="black"/>
<path opacity="0.166667" d="M51.845 392.005C173.971 329.703 513.893 258.829 896.569 473.741C1279.25 688.653 1534.33 595.315 1614.04 521.783" stroke="black"/>
<path opacity="0.208333" d="M56.4637 378.375C175.849 315.232 512.621 241.999 904.631 454.211C1296.64 666.424 1547.61 571.323 1624.1 497.245" stroke="black"/>
<path opacity="0.25" d="M61.1101 364.712C177.717 300.747 511.238 225.178 912.463 434.627C1313.69 644.075 1560.46 547.239 1633.7 472.64" stroke="black"/>
<path opacity="0.291667" d="M65.783 351.018C179.577 286.25 509.744 208.368 920.062 414.988C1330.38 621.608 1572.89 523.067 1642.85 447.969" stroke="black"/>
<path opacity="0.333333" d="M70.4809 337.291C181.427 271.739 508.14 191.568 927.425 395.297C1346.71 599.026 1584.87 498.81 1651.54 423.236" stroke="black"/>
<path opacity="0.375" d="M75.2023 323.53C183.266 257.215 506.426 174.78 934.551 375.556C1362.68 576.332 1596.42 474.471 1659.78 398.444" stroke="black"/>
<path opacity="0.416667" d="M79.9459 309.737C185.095 242.679 504.603 158.004 941.438 355.766C1378.27 553.527 1607.53 450.053 1667.56 373.596" stroke="black"/>
<path opacity="0.458333" d="M84.7102 295.911C186.913 228.131 502.671 141.242 948.082 335.929C1393.49 530.616 1618.2 425.56 1674.87 348.696" stroke="black"/>
<path opacity="0.5" d="M89.4937 282.051C188.719 213.569 500.631 124.493 954.484 316.046C1408.34 507.599 1628.41 400.993 1681.72 323.746" stroke="black"/>
<path opacity="0.541667" d="M94.295 268.158C190.512 198.995 498.484 107.758 960.639 296.119C1422.79 484.48 1638.18 376.357 1688.1 298.75" stroke="black"/>
<path opacity="0.583333" d="M99.1126 254.232C192.292 184.409 496.23 91.0395 966.547 276.151C1436.86 461.262 1647.49 351.654 1694.01 273.711" stroke="black"/>
<path opacity="0.625" d="M103.945 240.272C194.059 169.81 493.869 74.3367 972.205 256.142C1450.54 437.948 1656.34 326.888 1699.45 248.633" stroke="black"/>
<path opacity="0.666667" d="M108.791 226.278C195.811 155.198 491.404 57.6505 977.612 236.095C1463.82 414.539 1664.74 302.062 1704.42 223.518" stroke="black"/>
<path opacity="0.708333" d="M113.649 212.251C197.549 140.575 488.834 40.9824 982.766 216.011C1476.7 391.039 1672.67 277.179 1708.91 198.371" stroke="black"/>
<path opacity="0.75" d="M118.517 198.189C199.272 125.94 486.159 24.332 987.666 195.891C1489.17 367.451 1680.14 252.243 1712.93 173.193" stroke="black"/>
<path opacity="0.791667" d="M123.394 184.093C200.979 111.292 483.382 7.70058 992.311 175.739C1501.24 343.777 1687.14 227.255 1716.47 147.99" stroke="black"/>
<path opacity="0.833333" d="M128.278 169.964C202.67 96.6336 480.503 -8.9106 996.698 155.555C1512.89 320.021 1693.67 202.221 1719.54 122.763" stroke="black"/>
<path opacity="0.875" d="M133.169 155.8C204.345 81.9626 477.522 -25.5019 1000.83 135.341C1524.13 296.185 1699.73 177.143 1722.12 97.5169" stroke="black"/>
<path opacity="0.916667" d="M138.064 141.602C206.002 67.2799 474.441 -42.072 1004.7 115.1C1534.95 272.271 1705.32 152.024 1724.23 72.2541" stroke="black"/>
<path opacity="0.958333" d="M142.962 127.371C207.641 52.5863 471.26 -58.6198 1008.3 94.8325C1545.35 248.285 1710.44 126.869 1725.85 46.9788" stroke="black"/>
<path d="M147.861 113.105C209.262 37.8808 467.981 -75.1456 1011.65 74.5406C1555.32 224.227 1715.08 101.678 1727 21.6933" stroke="black"/>
<circle opacity="0.87" cx="440.479" cy="135.305" r="26.725" transform="rotate(18 440.479 135.305)" stroke="black"/>
<circle cx="705.975" cy="158.775" r="30.025" transform="rotate(-123 705.975 158.775)" stroke="black"/>
<circle opacity="0.9" cx="1286.06" cy="108.118" r="16.55" transform="rotate(-105 1286.06 108.118)" stroke="black"/>
<circle opacity="0.78" cx="601.043" cy="404.046" r="29.475" transform="rotate(-139 601.043 404.046)" stroke="black"/>
<circle opacity="0.98" cx="994.271" cy="350.439" r="26.725" transform="rotate(-110 994.271 350.439)" stroke="black"/>
<circle opacity="0.94" cx="1243.77" cy="506.362" r="20.95" transform="rotate(18 1243.77 506.362)" stroke="black"/>
<circle opacity="0.79" cx="375.321" cy="939.087" r="30.025" transform="rotate(-94 375.321 939.087)" stroke="black"/>
<circle opacity="0.97" cx="626.709" cy="886.29" r="22.6" transform="rotate(42 626.709 886.29)" stroke="black"/>
<circle opacity="0.86" cx="1482.97" cy="999.336" r="29.75" transform="rotate(76 1482.97 999.336)" stroke="black"/>
<path opacity="0.96" d="M508.404 196.421L477.45 194.256L494.802 168.532L508.404 196.421Z" stroke="black"/>
<path opacity="0.79" d="M946.496 59.8608L946.496 85.8243L924.011 72.8426L946.496 59.8608Z" stroke="black"/>
<path opacity="0.95" d="M1052.71 303.793L1069.44 287.634L1075.07 310.205L1052.71 303.793Z" stroke="black"/>
<path opacity="0.88" d="M1506.5 125.997L1528.36 152.998L1494.04 158.434L1506.5 125.997Z" stroke="black"/>
<path opacity="0.98" d="M512.205 325.857L491.601 335.906L493.2 313.039L512.205 325.857Z" stroke="black"/>
<path opacity="0.9" d="M773.988 491.398L774.553 459.022L802.309 475.699L773.988 491.398Z" stroke="black"/>
<path opacity="0.78" d="M1041.05 481.223L1053.54 498.402L1032.42 500.622L1041.05 481.223Z" stroke="black"/>
<path opacity="0.84" d="M1460.94 362.698L1474.52 348.638L1479.91 367.427L1460.94 362.698Z" stroke="black"/>
<path opacity="0.98" d="M285.365 491.394L263.012 482.831L281.604 467.755L285.365 491.394Z" stroke="black"/>
<path opacity="0.86" d="M965.751 784.335L950.578 800.607L944.073 779.331L965.751 784.335Z" stroke="black"/>
<path opacity="0.73" d="M1313.25 594.842L1300.57 612.295L1291.79 592.587L1313.25 594.842Z" stroke="black"/>
<path opacity="0.99" d="M1537.42 629.094L1515.34 607.774L1544.84 599.314L1537.42 629.094Z" stroke="black"/>
<path opacity="0.86" d="M657.227 855.38L633.071 829.475L667.583 821.507L657.227 855.38Z" stroke="black"/>
<path opacity="0.97" d="M804.692 1007.6L782.121 982.532L815.116 975.518L804.692 1007.6Z" stroke="black"/>
<path opacity="0.77" d="M1182.83 828.366L1168.68 793.333L1206.09 798.591L1182.83 828.366Z" stroke="black"/>
<path opacity="0.77" d="M1561.23 942.38L1537.07 916.475L1571.58 908.507L1561.23 942.38Z" stroke="black"/>
<path fill-rule="evenodd" clip-rule="evenodd" d="M1 400L21.3764 443C41.7528 487 83.7042 573 124.457 602C165.21 631 205.963 602 247.914 580C288.667 559 329.419 544 371.371 537C412.124 530 452.876 530 493.629 559C535.581 587 576.333 645 617.086 645C659.038 645 699.79 587 740.543 580C781.296 573 823.247 616 864 638C904.753 659 946.704 659 987.457 667C1028.21 674 1068.96 688 1110.91 688C1151.67 688 1192.42 674 1234.37 681C1275.12 688 1315.88 717 1356.63 688C1398.58 659 1439.33 573 1480.09 551C1522.04 530 1562.79 573 1603.54 623C1644.3 674 1686.25 731 1706.62 760L1727 789V789H1706.62C1686.25 789 1644.3 789 1603.54 789C1562.79 789 1522.04 789 1480.09 789C1439.33 789 1398.58 789 1356.63 789C1315.88 789 1275.12 789 1234.37 789C1192.42 789 1151.67 789 1110.91 789C1068.96 789 1028.21 789 987.457 789C946.704 789 904.753 789 864 789C823.247 789 781.296 789 740.543 789C699.79 789 659.038 789 617.086 789C576.333 789 535.581 789 493.629 789C452.876 789 412.124 789 371.371 789C329.419 789 288.667 789 247.914 789C205.963 789 165.21 789 124.457 789C83.7042 789 41.7528 789 21.3764 789H1V400Z" fill="url(#paint0_linear_19_2)"/>
<path fill-rule="evenodd" clip-rule="evenodd" d="M1727 1766L1706.62 1723C1686.25 1679 1644.3 1593 1603.54 1564C1562.79 1535 1522.04 1564 1480.09 1586C1439.33 1607 1398.58 1622 1356.63 1629C1315.88 1636 1275.12 1636 1234.37 1607C1192.42 1579 1151.67 1521 1110.91 1521C1068.96 1521 1028.21 1579 987.457 1586C946.704 1593 904.753 1550 864 1528C823.247 1507 781.296 1507 740.543 1499C699.79 1492 659.037 1478 617.086 1478C576.333 1478 535.581 1492 493.629 1485C452.876 1478 412.124 1449 371.371 1478C329.419 1507 288.667 1593 247.914 1615C205.962 1636 165.21 1593 124.457 1543C83.7041 1492 41.7527 1435 21.3763 1406L0.999958 1377V1377H21.3763C41.7527 1377 83.7041 1377 124.457 1377C165.21 1377 205.962 1377 247.914 1377C288.667 1377 329.419 1377 371.371 1377C412.124 1377 452.876 1377 493.629 1377C535.581 1377 576.333 1377 617.086 1377C659.037 1377 699.79 1377 740.543 1377C781.296 1377 823.247 1377 864 1377C904.753 1377 946.704 1377 987.457 1377C1028.21 1377 1068.96 1377 1110.91 1377C1151.67 1377 1192.42 1377 1234.37 1377C1275.12 1377 1315.88 1377 1356.63 1377C1398.58 1377 1439.33 1377 1480.09 1377C1522.04 1377 1562.79 1377 1603.54 1377C1644.3 1377 1686.25 1377 1706.62 1377H1727V1766Z" fill="url(#paint1_linear_19_2)"/>
<path fill-rule="evenodd" clip-rule="evenodd" d="M1 702.814L72.9167 673.845C144.833 644.876 288.667 587.938 432.5 601.922C576.333 616.906 720.167 702.814 864 745.767C1007.83 788.721 1151.67 788.721 1295.5 745.767C1439.33 702.814 1583.17 616.906 1655.08 572.954L1727 530V918.581H1655.08C1583.17 918.581 1439.33 918.581 1295.5 918.581C1151.67 918.581 1022.22 994 878.383 994C734.55 994 576.333 918.581 432.5 918.581C288.667 918.581 144.833 918.581 72.9167 918.581H1V702.814Z" fill="url(#paint2_linear_19_2)"/>
<path fill-rule="evenodd" clip-rule="evenodd" d="M1727 1435.29L1655.08 1483.84C1583.17 1512.88 1439.33 1569.94 1295.5 1555.92C1151.67 1540.91 1007.83 1454.81 864 1411.77C720.167 1368.72 576.333 1368.72 432.5 1411.77C288.667 1454.81 144.833 1540.91 72.9166 1584.95L0.999958 1628V1238.58H72.9166C144.833 1238.58 288.667 1238.58 432.5 1238.58C576.333 1238.58 705.783 1163 849.617 1163C993.45 1163 1151.67 1238.58 1295.5 1238.58C1439.33 1238.58 1583.17 1238.58 1655.08 1238.58H1727V1435.29Z" fill="url(#paint3_linear_19_2)"/>
<path fill-rule="evenodd" clip-rule="evenodd" d="M1 783L48.9444 754C96.8889 725 192.778 668 288.667 668C384.556 668 480.444 725 576.333 790C672.222 855 768.111 927 864 956C959.889 984 1055.78 970 1151.67 920C1247.56 869 1343.44 783 1439.33 761C1535.22 740 1631.11 783 1679.06 804L1727 826V1042H1679.06C1631.11 1042 1535.22 1042 1439.33 1042C1343.44 1042 1247.56 1042 1151.67 1042C1055.78 1042 959.889 1042 864 1042C768.111 1042 672.222 1042 576.333 1042C480.444 1042 384.556 1042 288.667 1042C192.778 1042 96.8889 1042 48.9444 1042H1V783Z" fill="url(#paint4_linear_19_2)"/>
<path fill-rule="evenodd" clip-rule="evenodd" d="M1727 1427.85L1679.06 1457.39C1631.11 1486.93 1535.22 1545 1439.33 1545C1343.44 1545 1247.56 1486.93 1151.67 1420.72C1055.78 1354.5 959.889 1281.15 864 1251.61C768.111 1223.09 672.222 1237.35 576.333 1288.28C480.444 1340.24 384.556 1427.85 288.667 1450.26C192.778 1471.65 96.8888 1427.85 48.9444 1406.45L0.999958 1384.04V1164H48.9444C96.8888 1164 192.778 1164 288.667 1164C384.556 1164 480.444 1164 576.333 1164C672.222 1164 768.111 1164 864 1164C959.889 1164 1055.78 1164 1151.67 1164C1247.56 1164 1343.44 1164 1439.33 1164C1535.22 1164 1631.11 1164 1679.06 1164H1727V1427.85Z" fill="url(#paint5_linear_19_2)"/>
<path fill-rule="evenodd" clip-rule="evenodd" d="M1 912.199L72.9167 905.21C144.833 898.221 288.667 884.242 432.5 876.254C576.333 869.265 720.167 869.265 864 833.32C1007.83 797.375 1151.67 725.486 1295.5 732.475C1439.33 740.463 1583.17 826.331 1655.08 869.265L1727 912.199V1042H1655.08C1583.17 1042 1439.33 1042 1295.5 1042C1151.67 1042 1007.83 1042 864 1042C720.167 1042 576.333 1042 432.5 1042C288.667 1042 144.833 1042 72.9167 1042H1V912.199Z" fill="url(#paint6_linear_19_2)"/>
<path fill-rule="evenodd" clip-rule="evenodd" d="M1727 1171.8L1655.08 1178.79C1583.17 1185.78 1439.33 1199.76 1295.5 1207.75C1151.67 1214.73 1007.83 1214.73 864 1250.68C720.167 1286.62 576.333 1358.51 432.5 1351.53C288.667 1343.54 144.833 1257.67 72.9168 1214.73L1.0001 1171.8V1042H72.9168C144.833 1042 288.667 1042 432.5 1042C576.333 1042 720.167 1042 864 1042C1007.83 1042 1151.67 1042 1295.5 1042C1439.33 1042 1583.17 1042 1655.08 1042H1727V1171.8Z" fill="url(#paint7_linear_19_2)"/>
<defs>
<linearGradient id="paint0_linear_19_2" x1="864" y1="400" x2="864" y2="789" gradientUnits="userSpaceOnUse">
<stop stop-color="#8D315C"/>
<stop offset="1" stop-color="#F56FAD"/>
</linearGradient>
<linearGradient id="paint1_linear_19_2" x1="864" y1="1766" x2="864" y2="1377" gradientUnits="userSpaceOnUse">
<stop stop-color="#8D315C"/>
<stop offset="1" stop-color="#F56FAD"/>
</linearGradient>
<linearGradient id="paint2_linear_19_2" x1="313.837" y1="458.577" x2="1344.97" y2="902.95" gradientUnits="userSpaceOnUse">
<stop stop-color="#23DFEB"/>
<stop offset="1" stop-color="#1DB9C3"/>
</linearGradient>
<linearGradient id="paint3_linear_19_2" x1="1414.16" y1="1699.58" x2="382.334" y2="1255.86" gradientUnits="userSpaceOnUse">
<stop stop-color="#23DFEB"/>
<stop offset="1" stop-color="#1DB9C3"/>
</linearGradient>
<linearGradient id="paint4_linear_19_2" x1="864" y1="668" x2="864" y2="1042" gradientUnits="userSpaceOnUse">
<stop stop-color="#C32BAD"/>
<stop offset="1" stop-color="#721A65"/>
</linearGradient>
<linearGradient id="paint5_linear_19_2" x1="864" y1="1545" x2="864" y2="1164" gradientUnits="userSpaceOnUse">
<stop stop-color="#C32BAD"/>
<stop offset="1" stop-color="#721A65"/>
</linearGradient>
<linearGradient id="paint6_linear_19_2" x1="864" y1="732" x2="864" y2="1042" gradientUnits="userSpaceOnUse">
<stop stop-color="#682098"/>
<stop offset="1" stop-color="#9937DA"/>
</linearGradient>
<linearGradient id="paint7_linear_19_2" x1="864" y1="1352" x2="864" y2="1042" gradientUnits="userSpaceOnUse">
<stop stop-color="#B93383"/>
<stop offset="1" stop-color="#9937DA"/>
</linearGradient>
</defs>
</svg>
