<svg width="504" height="504" viewBox="0 0 504 504" fill="none" xmlns="http://www.w3.org/2000/svg">
<g clip-path="url(#clip0_13_25)">
<path d="M369.907 125.901H49.773C22.327 125.901 0 148.228 0 175.666V353.112C0 380.559 22.327 402.885 49.773 402.885H100.721V486.819C100.721 490.285 102.853 493.399 106.084 494.65C107.074 495.028 108.098 495.212 109.114 495.212C111.439 495.212 113.705 494.247 115.325 492.467L196.767 402.884H369.907C397.354 402.884 419.672 380.557 419.672 353.119V175.674C419.672 148.228 397.354 125.901 369.907 125.901ZM307.678 252.533C307.519 253.095 307.384 253.658 307.216 254.22C306.78 255.588 306.318 256.939 305.806 258.299C304.975 260.515 304.018 262.731 302.935 264.938C302.583 265.651 302.205 266.357 301.827 267.062C300.476 269.614 298.973 272.132 297.261 274.608C297.018 274.961 296.749 275.296 296.497 275.649C294.608 278.293 292.56 280.903 290.227 283.43C289.497 284.219 288.565 285.209 287.533 286.292C287.239 286.594 286.904 286.947 286.593 287.274C285.796 288.113 284.939 288.995 283.999 289.96C283.554 290.422 283.101 290.892 282.639 291.37C281.691 292.344 280.7 293.359 279.659 294.425C279.181 294.912 278.719 295.382 278.224 295.894C276.973 297.17 275.656 298.504 274.296 299.889C273.541 300.653 272.768 301.433 271.988 302.231C270.737 303.498 269.47 304.783 268.161 306.109C267.238 307.041 266.289 307.989 265.349 308.946C264.468 309.827 263.595 310.717 262.697 311.615C261.69 312.631 260.674 313.646 259.65 314.679C258.777 315.56 257.904 316.433 257.031 317.315C255.931 318.423 254.849 319.514 253.741 320.614C253.162 321.202 252.583 321.781 251.995 322.368C247.597 326.783 243.283 331.106 239.187 335.193C238.734 335.646 238.264 336.116 237.81 336.561C236.375 338.005 234.998 339.373 233.647 340.724L233.362 341.009C231.96 342.411 230.609 343.762 229.316 345.038C226.454 347.9 223.86 350.485 221.661 352.676L209.851 364.427L198.016 352.71C183.554 338.408 146.875 301.367 132.74 286.872C132.463 286.587 132.178 286.293 131.917 286.024C131.883 285.99 131.85 285.957 131.816 285.923C130.943 285.025 130.137 284.194 129.525 283.564C129.508 283.547 129.491 283.522 129.475 283.497C127.058 281.004 124.934 278.402 122.995 275.75C122.911 275.632 122.819 275.523 122.735 275.414C116.49 266.777 112.646 257.494 110.732 248.303C110.631 247.85 110.556 247.405 110.463 246.952C109.968 244.325 109.615 241.723 109.422 239.138C109.346 238.164 109.305 237.199 109.263 236.234C109.196 234.01 109.213 231.819 109.347 229.662C109.414 228.562 109.498 227.471 109.624 226.372C109.884 224.022 110.27 221.747 110.749 219.515C110.908 218.818 111.043 218.122 111.219 217.425C111.983 214.387 112.94 211.482 114.09 208.78C121.644 190.969 136.744 179.437 155.352 176.826C158.004 176.457 160.741 176.264 163.527 176.264C184.595 176.264 200.215 187.805 209.817 201.083C218.21 189.458 231.22 179.176 248.46 176.784C250.919 176.448 253.471 176.264 256.098 176.264C258.885 176.264 261.596 176.449 264.248 176.81C282.772 179.345 297.847 190.558 305.426 207.891C306.567 210.476 307.516 213.263 308.288 216.192C308.582 217.241 308.783 218.299 309.018 219.356C309.261 220.523 309.463 221.715 309.639 222.915C311.212 232.666 310.524 242.738 307.678 252.533Z" fill="white"/>
<path d="M453.842 8.39404H133.708C106.261 8.39404 83.935 30.721 83.935 58.167V109.115H369.908C406.604 109.115 436.46 138.97 436.46 175.675V285.377H453.843C481.29 285.377 503.608 263.05 503.608 235.604V58.167C503.607 30.72 481.288 8.39404 453.842 8.39404Z" fill="white"/>
</g>
<defs>
<clipPath id="clip0_13_25">
<rect width="503.607" height="503.607" fill="white"/>
</clipPath>
</defs>
</svg>
