<svg width="496" height="496" viewBox="0 0 496 496" fill="none" xmlns="http://www.w3.org/2000/svg">
<g clip-path="url(#clip0_62_23)">
<path d="M487.083 225.514L412.003 150.434V63.704C412.003 48.022 399.295 35.313 383.59 35.313C367.921 35.313 355.213 48.022 355.213 63.704V93.645L299.31 37.74C271.671 10.116 223.616 10.165 196.04 37.79L8.31199 225.514C-2.77001 236.618 -2.77001 254.585 8.31199 265.672C19.399 276.773 37.401 276.773 48.484 265.672L236.194 77.943C242.309 71.86 253.087 71.86 259.17 77.925L446.912 265.672C452.479 271.223 459.737 273.984 466.993 273.984C474.264 273.984 481.534 271.22 487.084 265.672C498.17 254.586 498.17 236.619 487.083 225.514Z" fill="white"/>
<path d="M257.561 131.836C252.107 126.385 243.276 126.385 237.838 131.836L72.712 296.913C70.105 299.519 68.627 303.077 68.627 306.79V427.191C68.627 455.444 91.535 478.351 119.787 478.351H201.541V351.741H293.84V478.351H375.595C403.846 478.351 426.754 455.444 426.754 427.192V306.79C426.754 303.077 425.289 299.519 422.669 296.913L257.561 131.836Z" fill="white"/>
</g>
<defs>
<clipPath id="clip0_62_23">
<rect width="495.398" height="495.398" fill="white"/>
</clipPath>
</defs>
</svg>
