<?xml version="1.0" encoding="UTF-8" standalone="no" ?>
<!DOCTYPE svg PUBLIC "-//W3C//DTD SVG 1.1//EN" "http://www.w3.org/Graphics/SVG/1.1/DTD/svg11.dtd">
<svg xmlns="http://www.w3.org/2000/svg" xmlns:xlink="http://www.w3.org/1999/xlink" version="1.1" width="300" height="300" viewBox="0 0 300 300" xml:space="preserve">
<desc>Created with Fabric.js 4.6.0</desc>
<defs>
</defs>
<g transform="matrix(1 0 0 1 130.24 127.3)" id="Cz2q5GHyjRtdNbdkS4Hg4"  >
<filter id="SVGID_0" y="-35%" height="170%" x="-35%" width="170%" >
	<feGaussianBlur in="SourceAlpha" stdDeviation="7"></feGaussianBlur>
	<feOffset dx="24" dy="24" result="oBlur" ></feOffset>
	<feFlood flood-color="rgb(169,169,169)" flood-opacity="1"/>
	<feComposite in2="oBlur" operator="in" />
	<feMerge>
		<feMergeNode></feMergeNode>
		<feMergeNode in="SourceGraphic"></feMergeNode>
	</feMerge>
</filter>
<path style="stroke: rgb(0,0,0); stroke-width: 0; stroke-dasharray: none; stroke-linecap: butt; stroke-dashoffset: 0; stroke-linejoin: miter; stroke-miterlimit: 4; fill: rgb(255,255,255); fill-rule: nonzero; opacity: 0.76;filter: url(#SVGID_0);" vector-effect="non-scaling-stroke"  transform=" translate(-130, -127.06)" d="M 0 52.69073 C 0 23.59045 23.59044 0 52.69073 0 L 207.30799 0 L 207.30799 0 C 236.40827 0 259.99872 23.59044 259.99872 52.69073 L 259.99872 201.43689 L 259.99872 201.43689 C 259.99872 230.53717 236.40828 254.12762 207.30799 254.12762 L 52.69073 254.12762 L 52.69073 254.12762 C 23.59045 254.12762 0 230.53718 0 201.43689 z" stroke-linecap="round" />
</g>
<path d="M63.9844 108L75.8438 39.75L97.125 39.7969C105.031 39.8281 110.969 41.4375 114.938 44.625C118.906 47.8125 120.703 52.2969 120.328 58.0781C119.891 64.9844 115.906 70.0312 108.375 73.2188C111.094 74.1562 113.203 75.9219 114.703 78.5156C116.203 81.0781 116.844 84.1094 116.625 87.6094C116.188 94.0469 113.656 99.0625 109.031 102.656C104.438 106.219 98.1562 108 90.1875 108H63.9844ZM82.9219 78.2812L79.6875 96.7031L90.5156 96.75C93.8906 96.75 96.7188 95.9219 99 94.2656C101.281 92.5781 102.641 90.3125 103.078 87.4688C103.516 84.6562 103.125 82.4688 101.906 80.9062C100.719 79.3125 98.7031 78.4531 95.8594 78.3281L82.9219 78.2812ZM84.6094 68.3438L93.9375 68.4375C97.4062 68.375 100.234 67.5625 102.422 66C104.641 64.4375 105.969 62.2656 106.406 59.4844C107.188 53.9844 104.297 51.2188 97.7344 51.1875L87.6094 51.1406L84.6094 68.3438ZM137.016 108H123.703L132.516 57.2812H145.828L137.016 108ZM134.062 44.3906C134 42.2969 134.688 40.5625 136.125 39.1875C137.562 37.8125 139.297 37.125 141.328 37.125C143.328 37.0625 145.062 37.6719 146.531 38.9531C148 40.2344 148.766 41.8906 148.828 43.9219C148.891 45.8594 148.234 47.5469 146.859 48.9844C145.516 50.4219 143.75 51.1719 141.562 51.2344C139.594 51.2969 137.859 50.7031 136.359 49.4531C134.891 48.2031 134.125 46.5156 134.062 44.3906ZM173.438 56.2969C178.156 56.4219 181.969 58.3125 184.875 61.9688L189.844 36H203.109L190.641 108H178.828L179.578 102.562C175.797 106.969 171.391 109.109 166.359 108.984C163.203 108.953 160.438 108.125 158.062 106.5C155.688 104.875 153.844 102.547 152.531 99.5156C151.25 96.4531 150.547 93.0469 150.422 89.2969C150.328 87.3281 150.375 85.4219 150.562 83.5781L150.844 81.4688C151.594 76.2812 153.031 71.7188 155.156 67.7812C157.312 63.8438 159.938 60.9219 163.031 59.0156C166.156 57.1094 169.625 56.2031 173.438 56.2969ZM163.828 83.5781C163.578 85.9531 163.5 87.9531 163.594 89.5781C163.906 95.0781 166.125 97.875 170.25 97.9688C173.969 98.125 177.203 96.375 179.953 92.7188L183.562 72.5625C182.344 69.2188 179.906 67.4688 176.25 67.3125C173.031 67.2188 170.344 68.4688 168.188 71.0625C166.062 73.625 164.609 77.7969 163.828 83.5781ZM108.328 200.609H74.9062L67.3125 221H64.5469L90.0938 152.75H93.1875L118.734 221H115.969L108.328 200.609ZM75.8438 198.078H107.391L91.6406 155.797L75.8438 198.078ZM150.797 172.109L147.516 171.828C143.203 171.828 139.594 173.234 136.688 176.047C133.781 178.828 131.875 182.734 130.969 187.766V221H128.438V170.281H130.969V180.828C132.344 177.297 134.406 174.5 137.156 172.438C139.906 170.375 143.359 169.344 147.516 169.344C148.984 169.344 150.172 169.516 151.078 169.859L150.797 172.109ZM168.609 156.594V170.281H180.141V172.859H168.609V208.859C168.609 212.453 169.188 215.109 170.344 216.828C171.531 218.547 173.5 219.406 176.25 219.406C177.625 219.406 179.297 219.266 181.266 218.984L181.688 221.375C180.656 221.75 178.891 221.938 176.391 221.938C172.703 221.938 170.062 220.922 168.469 218.891C166.875 216.828 166.062 213.594 166.031 209.188V172.859H156.656V170.281H166.031V156.594H168.609ZM192.141 218.703C192.141 217.984 192.391 217.375 192.891 216.875C193.391 216.344 194 216.078 194.719 216.078C195.438 216.078 196.047 216.344 196.547 216.875C197.078 217.375 197.344 217.984 197.344 218.703C197.344 219.422 197.078 220.031 196.547 220.531C196.047 221.031 195.438 221.281 194.719 221.281C194 221.281 193.391 221.031 192.891 220.531C192.391 220.031 192.141 219.422 192.141 218.703Z" fill="black"/>

</svg>